<svg xmlns="http://www.w3.org/2000/svg" xmlns:xlink="http://www.w3.org/1999/xlink" width="500" zoomAndPan="magnify" viewBox="0 0 375 374.999991" height="500" preserveAspectRatio="xMidYMid meet" version="1.0"><defs><g/></defs><path fill="#000000" d="M 184.964844 374.421875 C 160.484375 374.066406 136.1875 368.902344 113.84375 359.289062 C 91.503906 349.675781 71.03125 335.789062 54.027344 318.523438 C 37.027344 301.253906 23.320312 280.695312 14.152344 258.351562 C 4.894531 236.011719 0.179688 211.800781 0.179688 187.589844 C 0.179688 211.800781 4.984375 236.011719 14.242188 258.351562 C 23.5 280.695312 37.382812 301.167969 54.5625 318.078125 C 71.742188 335.078125 92.304688 348.519531 114.644531 357.507812 C 136.988281 366.5 161.109375 370.859375 185.050781 370.503906 C 208.996094 370.148438 232.761719 364.984375 254.65625 355.550781 C 276.464844 346.117188 296.402344 332.320312 312.871094 315.40625 C 329.425781 298.496094 342.601562 278.378906 351.414062 256.484375 C 360.3125 234.675781 364.851562 211.085938 364.851562 187.589844 C 364.851562 164 360.3125 140.503906 351.414062 118.695312 C 342.511719 96.886719 329.335938 76.769531 312.871094 59.859375 C 296.316406 42.949219 276.464844 29.152344 254.65625 19.714844 C 232.671875 10.101562 208.90625 5.027344 184.964844 4.671875 C 161.019531 4.316406 136.898438 8.679688 114.554688 17.667969 C 92.214844 26.570312 71.652344 40.097656 54.386719 57.101562 C 37.207031 74.101562 23.410156 94.484375 14.0625 116.824219 C 4.71875 139.167969 0 163.378906 0 187.589844 C 0 163.378906 4.71875 139.167969 13.976562 116.824219 C 23.230469 94.394531 36.851562 73.921875 53.851562 56.65625 C 70.851562 39.386719 91.324219 25.414062 113.667969 15.886719 C 136.1875 6.097656 160.484375 1.023438 184.964844 0.578125 C 209.441406 0.222656 234.097656 4.585938 256.972656 13.753906 C 279.847656 22.832031 301.03125 36.539062 318.746094 53.808594 C 336.457031 71.074219 350.699219 91.992188 360.402344 114.867188 C 370.015625 137.742188 375 162.667969 375 187.5 C 375 212.332031 370.015625 237.257812 360.3125 260.132812 C 350.699219 283.007812 336.371094 303.925781 318.65625 321.191406 C 300.945312 338.460938 279.847656 352.167969 256.882812 361.246094 C 234.097656 370.414062 209.441406 374.777344 184.964844 374.421875 Z M 184.964844 374.421875 " fill-opacity="1" fill-rule="nonzero"/><g fill="#100a09" fill-opacity="1"><g transform="translate(207.107981, 257.773523)"><g><path d="M 94.796875 -57.109375 C 90.429688 -56.640625 86.101562 -56.363281 81.8125 -56.28125 C 77.519531 -56.207031 73.1875 -56.09375 68.8125 -55.9375 C 68.96875 -54.382812 69.046875 -52.828125 69.046875 -51.265625 C 69.046875 -49.703125 69.046875 -48.0625 69.046875 -46.34375 C 69.046875 -46.34375 69.082031 -46.34375 69.15625 -46.34375 C 69.238281 -46.34375 69.28125 -46.265625 69.28125 -46.109375 C 69.59375 -43.773438 69.515625 -41.59375 69.046875 -39.5625 C 69.828125 -38.625 69.941406 -37.566406 69.390625 -36.390625 C 68.847656 -35.222656 67.878906 -34.796875 66.484375 -35.109375 L 64.375 -35.8125 C 64.21875 -35.8125 64.097656 -35.847656 64.015625 -35.921875 C 63.941406 -36.003906 63.828125 -36.046875 63.671875 -36.046875 L 63.671875 -35.8125 C 63.984375 -34.875 64.253906 -33.894531 64.484375 -32.875 C 64.722656 -31.863281 64.765625 -30.894531 64.609375 -29.96875 C 64.609375 -28.5625 63.863281 -27.582031 62.375 -27.03125 C 60.894531 -26.488281 59.765625 -26.84375 58.984375 -28.09375 C 57.734375 -27.15625 56.175781 -26.84375 54.3125 -27.15625 C 52.75 -27.46875 51.457031 -28.164062 50.4375 -29.25 C 49.425781 -30.34375 48.765625 -31.671875 48.453125 -33.234375 C 47.828125 -36.046875 47.59375 -39.007812 47.75 -42.125 C 47.90625 -45.25 47.984375 -48.21875 47.984375 -51.03125 C 47.984375 -51.8125 47.984375 -52.59375 47.984375 -53.375 C 47.984375 -54.15625 48.0625 -54.851562 48.21875 -55.46875 C 45.71875 -55.46875 43.257812 -55.429688 40.84375 -55.359375 C 38.425781 -55.285156 36.046875 -55.25 33.703125 -55.25 C 31.679688 -55.09375 29.613281 -54.9375 27.5 -54.78125 C 25.394531 -54.625 23.25 -54.625 21.0625 -54.78125 C 20.90625 -55.394531 20.785156 -56.015625 20.703125 -56.640625 C 20.628906 -57.265625 20.4375 -57.890625 20.125 -58.515625 C 20.125 -59.921875 20.125 -61.285156 20.125 -62.609375 C 20.125 -63.941406 19.96875 -65.3125 19.65625 -66.71875 C 24.65625 -67.03125 29.570312 -67.335938 34.40625 -67.640625 C 39.25 -67.953125 44.085938 -68.1875 48.921875 -68.34375 L 48.921875 -69.28125 C 44.554688 -69.28125 40.148438 -69.28125 35.703125 -69.28125 C 31.253906 -69.28125 26.765625 -69.203125 22.234375 -69.046875 C 21.296875 -69.046875 20.785156 -69.472656 20.703125 -70.328125 C 20.628906 -71.191406 21.0625 -71.703125 22 -71.859375 C 26.53125 -72.484375 31.054688 -72.988281 35.578125 -73.375 C 40.109375 -73.769531 44.632812 -74.046875 49.15625 -74.203125 C 49.46875 -78.253906 49.9375 -82.304688 50.5625 -86.359375 C 51.1875 -90.421875 52.046875 -94.40625 53.140625 -98.3125 C 53.609375 -99.5625 54.617188 -100.421875 56.171875 -100.890625 C 57.734375 -101.359375 59.0625 -101.125 60.15625 -100.1875 L 60.625 -99.71875 C 62.03125 -98.3125 62.5 -96.59375 62.03125 -94.5625 L 62.03125 -91.765625 C 62.1875 -92.535156 62.378906 -93.191406 62.609375 -93.734375 C 62.847656 -94.285156 63.046875 -94.875 63.203125 -95.5 C 63.515625 -96.28125 64.097656 -96.671875 64.953125 -96.671875 C 65.816406 -96.671875 66.328125 -96.28125 66.484375 -95.5 C 67.722656 -92.695312 68.300781 -89.691406 68.21875 -86.484375 C 68.144531 -83.285156 68.109375 -80.207031 68.109375 -77.25 C 68.265625 -76.625 68.34375 -75.765625 68.34375 -74.671875 C 71.46875 -74.671875 74.664062 -74.671875 77.9375 -74.671875 C 81.21875 -74.671875 84.421875 -74.59375 87.546875 -74.4375 C 89.421875 -74.28125 90.203125 -73.222656 89.890625 -71.265625 C 89.578125 -69.316406 88.484375 -68.421875 86.609375 -68.578125 L 84.96875 -68.578125 C 85.28125 -68.578125 85.75 -68.421875 86.375 -68.109375 C 87 -67.953125 87.625 -67.410156 88.25 -66.484375 L 93.625 -66.484375 C 95.65625 -66.484375 97.140625 -65.738281 98.078125 -64.25 C 99.015625 -62.769531 99.25 -61.25 98.78125 -59.6875 C 98.3125 -58.125 96.984375 -57.265625 94.796875 -57.109375 Z M 68.578125 -68.8125 L 70.21875 -68.8125 C 70.6875 -68.8125 71.191406 -68.847656 71.734375 -68.921875 C 72.285156 -69.003906 72.796875 -69.046875 73.265625 -69.046875 L 68.578125 -69.046875 C 68.578125 -69.046875 68.578125 -68.96875 68.578125 -68.8125 Z M 68.578125 -68.8125 "/></g></g></g><path stroke-linecap="butt" transform="matrix(1.875, 0, 0, 1.875, 41.575819, -30.937498)" fill="none" stroke-linejoin="miter" d="M 75.322068 69.293753 C 62.519984 69.293753 52.43665 73.589587 45.072066 82.177088 C 37.734566 90.737505 34.065816 102.479172 34.065816 117.400007 C 34.065816 132.183341 37.490816 143.897925 44.338733 152.539592 C 51.18665 161.156259 61.461651 165.46251 75.157485 165.46251 C 80.267902 165.46251 85.159569 165.029176 89.834569 164.158343 C 94.50957 163.26251 99.12832 162.147926 103.694987 160.816676 L 103.694987 173.820844 C 99.236653 175.50626 94.644986 176.729177 89.915819 177.489594 C 85.186652 178.277094 79.534569 178.670844 72.957485 178.670844 C 60.834567 178.670844 50.71165 176.170844 42.58665 171.170843 C 34.459566 166.141676 28.357482 159.008343 24.282482 149.768759 C 20.232481 140.527091 18.207481 129.683341 18.207481 117.235423 C 18.207481 105.195839 20.394981 94.583338 24.769982 85.397921 C 29.174149 76.210421 35.655399 69.03542 44.215816 63.87292 C 52.8054 58.708336 63.226234 56.127086 75.484568 56.127086 C 88.067903 56.127086 99.03457 58.464586 108.382487 63.139586 L 102.349153 75.816671 C 98.680403 74.131254 94.59082 72.62292 90.078319 71.29167 C 85.567902 69.96042 80.649152 69.293753 75.322068 69.293753 Z M 75.322068 69.293753 " stroke="#100a09" stroke-width="13.35912" stroke-opacity="1" stroke-miterlimit="4"/><g fill="#ffc800" fill-opacity="1"><g transform="translate(56.605114, 300.93748)"><g><path d="M 126.171875 -201.953125 C 102.171875 -201.953125 83.28125 -193.914062 69.5 -177.84375 C 55.726562 -161.769531 48.84375 -139.75 48.84375 -111.78125 C 48.84375 -84.019531 55.257812 -62.050781 68.09375 -45.875 C 80.9375 -29.695312 100.191406 -21.609375 125.859375 -21.609375 C 135.460938 -21.609375 144.644531 -22.441406 153.40625 -24.109375 C 162.175781 -25.773438 170.84375 -27.863281 179.40625 -30.375 L 179.40625 -5.953125 C 171.050781 -2.816406 162.4375 -0.519531 153.5625 0.9375 C 144.695312 2.394531 134.109375 3.125 121.796875 3.125 C 99.046875 3.125 80.050781 -1.566406 64.8125 -10.953125 C 49.570312 -20.347656 38.140625 -33.707031 30.515625 -51.03125 C 22.898438 -68.351562 19.09375 -88.707031 19.09375 -112.09375 C 19.09375 -134.632812 23.210938 -154.515625 31.453125 -171.734375 C 39.703125 -188.953125 51.863281 -202.414062 67.9375 -212.125 C 84.007812 -221.832031 103.523438 -226.6875 126.484375 -226.6875 C 150.078125 -226.6875 170.640625 -222.300781 188.171875 -213.53125 L 176.890625 -189.734375 C 170.003906 -192.867188 162.332031 -195.6875 153.875 -198.1875 C 145.425781 -200.695312 136.191406 -201.953125 126.171875 -201.953125 Z M 126.171875 -201.953125 "/></g></g></g><g fill="#000000" fill-opacity="1"><g transform="translate(59.624418, 112.146296)"><g><path d="M 4.546875 -6.578125 C 4.003906 -5.742188 3.34375 -5.050781 2.5625 -4.5 C 1.78125 -3.957031 0.945312 -3.585938 0.0625 -3.390625 C -0.820312 -3.191406 -1.742188 -3.171875 -2.703125 -3.328125 C -3.660156 -3.484375 -4.570312 -3.84375 -5.4375 -4.40625 L -5.484375 -4.421875 C -6.328125 -4.960938 -7.023438 -5.632812 -7.578125 -6.4375 C -8.128906 -7.238281 -8.503906 -8.082031 -8.703125 -8.96875 C -8.910156 -9.863281 -8.925781 -10.796875 -8.75 -11.765625 C -8.582031 -12.734375 -8.210938 -13.660156 -7.640625 -14.546875 C -6.878906 -15.742188 -6.007812 -16.601562 -5.03125 -17.125 C -4.0625 -17.644531 -3.050781 -17.929688 -2 -17.984375 L -1.6875 -14.3125 C -2.3125 -14.25 -2.882812 -14.085938 -3.40625 -13.828125 C -3.925781 -13.578125 -4.363281 -13.175781 -4.71875 -12.625 C -4.976562 -12.207031 -5.128906 -11.769531 -5.171875 -11.3125 C -5.222656 -10.863281 -5.1875 -10.425781 -5.0625 -10 C -4.945312 -9.582031 -4.738281 -9.179688 -4.4375 -8.796875 C -4.144531 -8.410156 -3.789062 -8.082031 -3.375 -7.8125 L -3.34375 -7.78125 C -2.894531 -7.5 -2.429688 -7.304688 -1.953125 -7.203125 C -1.484375 -7.097656 -1.023438 -7.078125 -0.578125 -7.140625 C -0.140625 -7.203125 0.265625 -7.351562 0.640625 -7.59375 C 1.023438 -7.84375 1.347656 -8.175781 1.609375 -8.59375 C 2.003906 -9.195312 2.195312 -9.785156 2.1875 -10.359375 C 2.1875 -10.941406 2.085938 -11.546875 1.890625 -12.171875 L 5.21875 -13.5 C 5.625 -12.457031 5.816406 -11.363281 5.796875 -10.21875 C 5.785156 -9.082031 5.367188 -7.867188 4.546875 -6.578125 Z M 4.546875 -6.578125 "/></g></g></g><g fill="#000000" fill-opacity="1"><g transform="translate(68.152762, 98.82195)"><g><path d="M 5.546875 -6.171875 C 4.859375 -5.347656 4.070312 -4.703125 3.1875 -4.234375 C 2.300781 -3.773438 1.394531 -3.5 0.46875 -3.40625 C -0.445312 -3.3125 -1.363281 -3.398438 -2.28125 -3.671875 C -3.207031 -3.953125 -4.054688 -4.414062 -4.828125 -5.0625 L -4.859375 -5.09375 C -5.628906 -5.738281 -6.226562 -6.492188 -6.65625 -7.359375 C -7.082031 -8.222656 -7.332031 -9.125 -7.40625 -10.0625 C -7.488281 -11 -7.378906 -11.941406 -7.078125 -12.890625 C -6.773438 -13.847656 -6.273438 -14.742188 -5.578125 -15.578125 C -4.878906 -16.398438 -4.085938 -17.039062 -3.203125 -17.5 C -2.328125 -17.957031 -1.425781 -18.234375 -0.5 -18.328125 C 0.425781 -18.421875 1.347656 -18.328125 2.265625 -18.046875 C 3.191406 -17.773438 4.039062 -17.316406 4.8125 -16.671875 L 4.84375 -16.640625 C 5.601562 -15.992188 6.195312 -15.238281 6.625 -14.375 C 7.0625 -13.519531 7.316406 -12.625 7.390625 -11.6875 C 7.472656 -10.75 7.359375 -9.800781 7.046875 -8.84375 C 6.742188 -7.882812 6.242188 -6.992188 5.546875 -6.171875 Z M 2.890625 -8.453125 C 3.234375 -8.859375 3.46875 -9.289062 3.59375 -9.75 C 3.726562 -10.21875 3.757812 -10.675781 3.6875 -11.125 C 3.625 -11.582031 3.472656 -12.019531 3.234375 -12.4375 C 3.003906 -12.863281 2.695312 -13.238281 2.3125 -13.5625 L 2.28125 -13.59375 C 1.882812 -13.925781 1.453125 -14.171875 0.984375 -14.328125 C 0.523438 -14.492188 0.0664062 -14.566406 -0.390625 -14.546875 C -0.847656 -14.523438 -1.296875 -14.410156 -1.734375 -14.203125 C -2.179688 -14.003906 -2.578125 -13.703125 -2.921875 -13.296875 C -3.253906 -12.890625 -3.484375 -12.453125 -3.609375 -11.984375 C -3.742188 -11.515625 -3.78125 -11.050781 -3.71875 -10.59375 C -3.65625 -10.144531 -3.503906 -9.707031 -3.265625 -9.28125 C -3.035156 -8.851562 -2.726562 -8.476562 -2.34375 -8.15625 L -2.3125 -8.125 C -1.925781 -7.800781 -1.5 -7.554688 -1.03125 -7.390625 C -0.5625 -7.234375 -0.0976562 -7.164062 0.359375 -7.1875 C 0.816406 -7.207031 1.269531 -7.320312 1.71875 -7.53125 C 2.164062 -7.738281 2.554688 -8.046875 2.890625 -8.453125 Z M 2.890625 -8.453125 "/></g></g></g><g fill="#000000" fill-opacity="1"><g transform="translate(79.67447, 85.265433)"><g><path d="M 0.90625 -0.828125 L -8.515625 -11.1875 L -5.828125 -13.625 L 3.421875 -12.03125 L -1.5625 -17.515625 L 1.265625 -20.09375 L 10.6875 -9.734375 L 8.1875 -7.453125 L -1.421875 -9.109375 L 3.75 -3.421875 Z M 0.90625 -0.828125 "/></g></g></g><g fill="#000000" fill-opacity="1"><g transform="translate(92.298792, 73.970689)"><g><path d="M 1 -0.71875 L -7.09375 -12.140625 L 2.109375 -18.65625 L 4 -15.984375 L -2.0625 -11.6875 L -0.8125 -9.9375 L 4.671875 -13.828125 L 6.4375 -11.328125 L 0.953125 -7.4375 L 2.234375 -5.625 L 8.375 -9.96875 L 10.28125 -7.28125 Z M 1 -0.71875 "/></g></g></g><g fill="#000000" fill-opacity="1"><g transform="translate(104.254286, 65.540338)"><g><path d="M 7.171875 -3.578125 C 6.285156 -3.097656 5.367188 -2.804688 4.421875 -2.703125 C 3.472656 -2.609375 2.5625 -2.6875 1.6875 -2.9375 C 0.8125 -3.195312 -0.00390625 -3.625 -0.765625 -4.21875 C -1.523438 -4.820312 -2.148438 -5.578125 -2.640625 -6.484375 L -2.65625 -6.515625 C -3.144531 -7.410156 -3.4375 -8.335938 -3.53125 -9.296875 C -3.632812 -10.265625 -3.554688 -11.1875 -3.296875 -12.0625 C -3.035156 -12.945312 -2.597656 -13.769531 -1.984375 -14.53125 C -1.367188 -15.300781 -0.597656 -15.9375 0.328125 -16.4375 C 1.578125 -17.125 2.75 -17.453125 3.84375 -17.421875 C 4.945312 -17.398438 5.972656 -17.164062 6.921875 -16.71875 L 5.4375 -13.359375 C 4.851562 -13.585938 4.269531 -13.71875 3.6875 -13.75 C 3.113281 -13.78125 2.535156 -13.640625 1.953125 -13.328125 C 1.523438 -13.085938 1.179688 -12.78125 0.921875 -12.40625 C 0.660156 -12.039062 0.484375 -11.640625 0.390625 -11.203125 C 0.296875 -10.773438 0.28125 -10.320312 0.34375 -9.84375 C 0.414062 -9.363281 0.570312 -8.90625 0.8125 -8.46875 L 0.84375 -8.421875 C 1.09375 -7.960938 1.398438 -7.570312 1.765625 -7.25 C 2.128906 -6.925781 2.515625 -6.6875 2.921875 -6.53125 C 3.335938 -6.382812 3.769531 -6.320312 4.21875 -6.34375 C 4.675781 -6.375 5.117188 -6.507812 5.546875 -6.75 C 6.179688 -7.09375 6.632812 -7.515625 6.90625 -8.015625 C 7.1875 -8.523438 7.390625 -9.097656 7.515625 -9.734375 L 11.078125 -9.3125 C 10.941406 -8.195312 10.59375 -7.144531 10.03125 -6.15625 C 9.46875 -5.164062 8.515625 -4.304688 7.171875 -3.578125 Z M 7.171875 -3.578125 "/></g></g></g><g fill="#000000" fill-opacity="1"><g transform="translate(118.261849, 58.042063)"><g><path d="M 4.328125 -1.734375 L 0.390625 -11.5625 L -3.484375 -10.015625 L -4.765625 -13.1875 L 6.59375 -17.734375 L 7.875 -14.5625 L 4 -13.015625 L 7.9375 -3.1875 Z M 4.328125 -1.734375 "/></g></g></g><g fill="#000000" fill-opacity="1"><g transform="translate(131.666933, 52.654875)"><g><path d="M 0.140625 -0.03125 L 2.25 -15.1875 L 5.859375 -16.140625 L 15.25 -4.046875 L 11.234375 -2.984375 L 9.625 -5.171875 L 4.390625 -3.765625 L 4.0625 -1.078125 Z M 4.703125 -6.984375 L 7.75 -7.796875 L 5.21875 -11.21875 Z M 4.703125 -6.984375 "/></g></g></g></svg>