<svg xmlns="http://www.w3.org/2000/svg" version="1.1" xmlns:xlink="http://www.w3.org/1999/xlink" xmlns:svgjs="http://svgjs.dev/svgjs" width="1440" height="560" preserveAspectRatio="none" viewBox="0 0 1440 560"><g mask="url(&quot;#SvgjsMask1016&quot;)" fill="none"><rect width="1440" height="560" x="0" y="0" fill="rgba(40, 40, 40, 1)"></rect><path d="M84 0C112.34 2.3 113.67 11.35 140 11.35C147.5 11.35 143.79 0.64 151.67 0C213.79 -5.04 215.83 0 280 0C350 0 350 0 420 0C490 0 490 0 560 0C611.74 0 612.78 -5.34 663.48 0C682.78 2.03 681.77 7.3 700 14.74C770.03 43.3 767.37 59.48 840 72C907.37 83.61 920.65 86.29 980 63C1012.38 50.29 992.5 13.93 1023.45 0C1062.5 -17.57 1071.72 0 1120 0C1151.82 0 1167.04 -21.1 1183.64 0C1222.11 48.9 1202.26 72.23 1230.13 140C1240.44 165.09 1244.04 185.71 1260 185.71C1277.04 185.71 1277 161.96 1296.13 140C1347 81.6 1344.09 25 1400 25C1464.54 25 1469.23 81.89 1537.02 140C1539.23 141.89 1539.94 142.11 1540 145C1541.43 212.11 1540 212.5 1540 280C1540 350 1540 350 1540 420C1540 490 1575 525 1540 560C1505 595 1470 560 1400 560C1330 560 1330 560 1260 560C1190 560 1190 560 1120 560C1050 560 1050 560 980 560C910 560 910 560 840 560C770 560 770 560 700 560C630 560 630 560 560 560C522.94 560 521.38 567.38 485.88 560C451.38 552.83 454.11 542.19 420 530.91C351.17 508.14 337.31 482.36 280 491.89C249.81 496.91 274.52 545.64 245 560C204.52 579.69 192.5 560 140 560C73.69 560 7.37 586.48 7.37 560C7.37 523.48 70.68 492.38 140 434C153.79 422.38 173.6 428.38 173.6 420C173.6 410.88 159.11 400.26 140 399C72.31 394.52 36.54 439.58 0 408.52C-33.46 380.08 0 344.26 0 280C0 210 0 210 0 140C0 70 -26.25 43.75 0 0C15.75 -26.25 42.34 -3.38 84 0" stroke="rgba(14, 149, 148, 1)" stroke-width="2"></path><path d="M280 130.14C275.1 130.14 270.41 133.99 270.41 140C270.41 152.92 275.01 168 280 168C285.03 168 290.45 152.78 290.45 140C290.45 133.85 285.12 130.14 280 130.14" stroke="rgba(14, 149, 148, 1)" stroke-width="2"></path><path d="M840 265.26C832.99 267.38 835.63 273.21 835.63 280C835.63 282.67 837.02 283.84 840 284.18C909.21 292.17 913.51 298.49 980 296.67C989.99 296.4 992.96 289.56 992.96 280C992.96 259.35 998.5 238.03 980 236.25C922.02 230.66 905.18 245.51 840 265.26" stroke="rgba(14, 149, 148, 1)" stroke-width="2"></path><path d="M1400 242.22C1375.62 242.22 1371.83 256.94 1352.4 280C1301.83 340 1309.93 348.64 1260 408.33C1251.37 418.64 1235.29 412.02 1235.29 420C1235.29 430.21 1244.34 437.55 1260 444.71C1326.7 475.24 1345.83 503.42 1400 495.38C1429.07 491.07 1416.78 458.65 1426.49 420C1443.83 350.96 1463.15 340.78 1454.09 280C1449.9 251.89 1426.47 242.22 1400 242.22" stroke="rgba(14, 149, 148, 1)" stroke-width="2"></path><path d="M560 405.8C552.45 405.8 545.59 411.29 545.59 420C545.59 437.99 552.13 459.2 560 459.2C568.09 459.2 577.5 437.51 577.5 420C577.5 410.81 568.41 405.8 560 405.8" stroke="rgba(14, 149, 148, 1)" stroke-width="2"></path><path d="M50.15 140C92.52 96.89 95.68 99.97 140 58.65C170.75 29.97 164.34 15.05 200.28 0C234.34 -14.27 240.14 0 280 0C350 0 350 0 420 0C479.23 0 483.53 -9.55 538.46 0C553.53 2.62 545.56 17.54 560 24.35C626.33 55.61 632.69 44.63 700 76.14C756.22 102.45 788.17 92.42 807.06 140C828.64 194.35 770.47 217.59 780.94 280C786.94 315.8 804.39 318.53 840 336.42C903.92 368.53 912.06 353.35 980 380C1018.58 395.14 1015.91 401.22 1053.04 420C1085.91 436.62 1091.54 428.19 1120 450.8C1179.62 498.19 1229.2 528.02 1229.2 560C1229.2 582.62 1174.6 560 1120 560C1050 560 1050 560 980 560C910 560 910 560 840 560C773.11 560 770.27 564.93 706.22 560C700.27 559.54 702.66 554.85 700 549.23C669.55 484.85 680.62 476.34 640 420C610.62 379.26 598.43 355.07 560 355.07C525.49 355.07 527.95 388.49 494.12 420C457.95 453.68 460.74 485.45 420 485.45C363.68 485.45 300 463.31 300 420C300 362.48 359.91 351.8 420 283.78C421.75 281.8 423.68 281.88 423.68 280C423.68 278.15 421.3 278.57 420 276.32C380.81 208.57 387.85 203.06 342.69 140C317.85 105.32 310.71 80.85 280 80.85C250.6 80.85 231.73 103.11 222.47 140C206.73 202.68 254.54 228.96 230 280C213.31 314.71 185.53 297.42 140 311.5C70.53 332.99 47.01 361.73 0 351.15C-22.99 345.98 0 315.58 0 280C0 240.55 -12.53 236.06 0 201.09C12.55 166.06 22.52 168.11 50.15 140" stroke="rgba(14, 149, 148, 1)" stroke-width="2"></path><path d="M1020.83 140C1037.03 71.78 1076.62 17.95 1120 17.95C1157.94 17.95 1148.77 80.71 1183.47 140C1218.77 200.31 1219.74 200.17 1260 257.14C1269.21 270.17 1282.4 267.72 1282.4 280C1282.4 294.71 1276.16 301.56 1260 311.11C1194.96 349.56 1178.06 384.93 1120 376C1076.95 369.38 1079.67 332.08 1057.78 280C1030.08 214.08 1005.92 202.81 1020.83 140" stroke="rgba(14, 149, 148, 1)" stroke-width="2"></path><path d="M1352.58 140C1352.58 114.45 1374.48 87.5 1400 87.5C1429.46 87.5 1462.55 114.65 1462.55 140C1462.55 164.23 1429.68 186.67 1400 186.67C1374.7 186.67 1352.58 164.03 1352.58 140" stroke="rgba(14, 149, 148, 1)" stroke-width="2"></path><path d="M1533.64 280C1536.03 274.58 1538.28 270 1540 270C1541.46 270 1540 275 1540 280C1540 350 1540 350 1540 420C1540 490 1570.5 520.5 1540 560C1516.46 590.5 1446.01 589.76 1431.93 560C1412.9 519.76 1448.88 488.56 1473.78 420C1499.73 348.56 1502.92 349.58 1533.64 280" stroke="rgba(14, 149, 148, 1)" stroke-width="2"></path><path d="M68.77 560C68.77 540.39 106.35 492.33 140 492.33C170.16 492.33 196.39 539.37 196.39 560C196.39 573.21 168.19 560 140 560C104.38 560 68.77 574.22 68.77 560" stroke="rgba(14, 149, 148, 1)" stroke-width="2"></path><path d="M102.39 140C102.39 119.5 121.56 105.95 140 105.95C157.62 105.95 174.52 119.87 174.52 140C174.52 173.95 157.88 214.12 140 214.12C121.82 214.12 102.39 173.58 102.39 140" stroke="rgba(14, 149, 148, 1)" stroke-width="2"></path><path d="M280 31.55C264.01 16.22 248.89 9.27 248.89 0C248.89 -6.51 264.44 0 280 0C350 0 350 0 420 0C445.58 0 451.82 -13.87 471.15 0C521.82 36.35 504.99 67.37 560 100.43C619.42 136.14 630.25 118.39 700 137.54C702.31 138.17 703.69 137.67 704.12 140C716.82 208.9 727.32 210.26 726.25 280C725.26 344.88 735.73 404 700 409.23C652.6 416.17 631.48 354.5 560 304.35C539.38 289.88 534.79 296.31 515.79 280C464.79 236.24 463.94 235.11 420 184.21C403.51 165.11 411.96 158.58 394.93 140C341.96 82.25 337.03 86.22 280 31.55" stroke="rgba(14, 149, 148, 1)" stroke-width="2"></path><path d="M1093.75 140C1093.75 120.65 1108.52 107.69 1120 107.69C1130.04 107.69 1136.8 122.37 1136.8 140C1136.8 201.53 1130.7 266 1120 266C1109.17 266 1093.75 199.81 1093.75 140" stroke="rgba(14, 149, 148, 1)" stroke-width="2"></path><path d="M0 264.73C13.92 264.73 38.18 272.69 38.18 280C38.18 287.21 14.25 293.77 0 293.77C-4.84 293.77 0 286.88 0 280C0 272.37 -5.17 264.73 0 264.73" stroke="rgba(14, 149, 148, 1)" stroke-width="2"></path><path d="M383.33 420C383.33 402.42 404 378.38 420 378.38C433.66 378.38 442.65 401.19 442.65 420C442.65 432 432.45 440 420 440C402.79 440 383.33 433.23 383.33 420" stroke="rgba(14, 149, 148, 1)" stroke-width="2"></path><path d="M708.75 420C721.61 380.66 775.64 388.66 840 388.66C878.77 388.66 895.99 388.98 915 420C948.49 474.65 966.63 519.62 945 560C929.13 589.62 892.5 560 840 560C812 560 801.1 578.24 784 560C735.47 508.24 693.61 466.33 708.75 420" stroke="rgba(14, 149, 148, 1)" stroke-width="2"></path><path d="M1521.08 420C1526.81 397.6 1535.06 377.58 1540 377.58C1544.52 377.58 1540 398.79 1540 420C1540 490 1557.5 507.5 1540 560C1534.17 577.5 1495.66 577.25 1493.33 560C1486.2 507.25 1503.47 488.81 1521.08 420" stroke="rgba(14, 149, 148, 1)" stroke-width="2"></path><path d="M130.18 560C130.18 557.3 135.36 550.67 140 550.67C144.16 550.67 147.78 557.16 147.78 560C147.78 561.82 143.89 560 140 560C135.09 560 130.18 561.96 130.18 560" stroke="rgba(14, 149, 148, 1)" stroke-width="2"></path><path d="M1022 560C1022 549.84 1075.02 520.8 1120 520.8C1143.62 520.8 1159.2 548.52 1159.2 560C1159.2 568.12 1139.6 560 1120 560C1071 560 1022 569.44 1022 560" stroke="rgba(14, 149, 148, 1)" stroke-width="2"></path></g><defs><mask id="SvgjsMask1016"><rect width="1440" height="560" fill="#ffffff"></rect></mask></defs></svg>