<svg xmlns="http://www.w3.org/2000/svg" xmlns:xlink="http://www.w3.org/1999/xlink" width="300" zoomAndPan="magnify" viewBox="0 0 224.87999 38.249999" height="51" preserveAspectRatio="xMidYMid meet" version="1.0"><defs><g/><clipPath id="181336aa5d"><path d="M 143 3 L 198 3 L 198 37.515625 L 143 37.515625 Z M 143 3 " clip-rule="nonzero"/></clipPath></defs><g fill="#ffc800" fill-opacity="1"><g transform="translate(6.573609, 27.344526)"><g><path d="M 13.3125 -26.953125 C 6.671875 -26.953125 2.265625 -22.484375 2.265625 -14.609375 L 2.265625 -13.390625 C 1.984375 -11.984375 0.75 -12.453125 0.75 -11.828125 L 0.75 -11.796875 C 0.796875 -11.140625 2.234375 -11.609375 2.453125 -9.890625 C 3.28125 -3.609375 4.875 0.46875 10.96875 0.46875 C 16.59375 0.46875 16.78125 -4.578125 16.84375 -6.640625 C 16.84375 -6.859375 16.890625 -7.03125 16.890625 -7.171875 C 16.890625 -7.578125 16.3125 -7.796875 15.796875 -7.796875 C 15.40625 -7.796875 15.015625 -7.65625 14.96875 -7.390625 C 14.9375 -7.28125 14.9375 -7.109375 14.9375 -6.890625 C 14.9375 -6.5 14.96875 -5.984375 14.96875 -5.40625 C 14.96875 -3.46875 14.640625 -0.9375 12.015625 -0.9375 C 9.671875 -0.9375 8.625 -5.875 8.625 -11.359375 C 8.625 -16.921875 9.703125 -23.046875 11.546875 -24.96875 C 11.796875 -25.21875 12.265625 -25.4375 12.8125 -25.4375 C 13.78125 -25.4375 14.90625 -24.640625 14.90625 -21.640625 L 14.90625 -21.140625 C 14.90625 -20.8125 15.1875 -20.28125 16.234375 -20.28125 C 16.53125 -20.28125 16.625 -20.5 16.671875 -20.59375 C 16.890625 -22.484375 16.53125 -25.109375 17.609375 -26.59375 C 17.640625 -26.65625 17.671875 -26.703125 17.671875 -26.765625 C 17.671875 -26.984375 17.3125 -27.015625 17 -27.015625 C 15.484375 -27.015625 14.390625 -26.953125 13.3125 -26.953125 Z M 13.3125 -26.953125 "/></g></g></g><g fill="#ffc800" fill-opacity="1"><g transform="translate(24.178927, 27.344526)"><g><path d="M 21.03125 -13.859375 C 21.03125 -19.59375 19.265625 -26.953125 12.515625 -26.953125 C 5.09375 -26.953125 2.234375 -18.796875 2.234375 -13.28125 C 1.796875 -12.1875 0.71875 -12.65625 0.71875 -12.046875 C 0.71875 -11.46875 1.796875 -11.71875 2.203125 -10.640625 C 2.375 -6.34375 3.828125 0.71875 11.796875 0.71875 C 18.140625 0.71875 20.09375 -5.625 20.75 -10.3125 C 21.171875 -11.828125 22.40625 -11.109375 22.484375 -11.765625 L 22.484375 -11.796875 C 22.484375 -12.40625 21.109375 -12.15625 21.03125 -13.859375 Z M 11.828125 -0.328125 C 8.515625 -0.328125 8.125 -9.265625 8.125 -13.125 C 8.125 -17.390625 8.90625 -25.875 12.59375 -25.875 C 14.90625 -25.875 15.328125 -21 15.328125 -14.078125 C 15.328125 -10.359375 15.328125 -0.328125 11.828125 -0.328125 Z M 11.828125 -0.328125 "/></g></g></g><g fill="#ffc800" fill-opacity="1"><g transform="translate(46.221648, 27.344526)"><g><path d="M 17.828125 -26.734375 C 17.5 -26.734375 17.390625 -26.34375 17.390625 -26.125 C 17.390625 -25.6875 17.71875 -25.40625 17.9375 -25.359375 C 18.71875 -25.25 19.234375 -25.546875 19.234375 -23.84375 C 19.234375 -22.4375 18.765625 -6.921875 18.6875 -6.453125 C 18.140625 -7.359375 9.484375 -24.859375 8.484375 -26.59375 C 8.375 -26.765625 8.265625 -26.875 8.078125 -26.875 L 7.96875 -26.875 C 7.28125 -26.734375 6.234375 -26.703125 5.125 -26.703125 C 4.4375 -26.703125 3.75 -26.734375 2.703125 -26.734375 C 1.796875 -26.734375 1.84375 -26.078125 1.796875 -25.875 C 1.84375 -25.40625 1.984375 -25.296875 2.375 -25.296875 C 2.59375 -25.296875 2.953125 -25.328125 3.390625 -25.328125 C 3.96875 -25.328125 4.046875 -24.859375 4.109375 -24.25 L 4.109375 -24.171875 C 4.15625 -23.625 4.1875 -21.796875 4.1875 -19.40625 C 4.1875 -17.71875 4.15625 -15.765625 4.15625 -13.78125 C 3.78125 -12.1875 2.53125 -12.84375 2.53125 -12.1875 L 2.53125 -12.15625 C 2.53125 -11.515625 4 -11.90625 4.109375 -9.953125 C 4.078125 -6.234375 4 -3.0625 3.96875 -2.453125 L 3.96875 -2.34375 C 3.9375 -1.765625 3.890625 -1.078125 2.734375 -0.90625 C 2.34375 -0.796875 2.0625 -0.46875 2.0625 -0.1875 C 2.0625 0.078125 2.265625 0.25 2.484375 0.25 C 2.734375 0.25 3.46875 0.109375 4.71875 0.109375 C 5.59375 0.109375 6.5 0.21875 6.75 0.21875 C 7 0.21875 7.171875 0.03125 7.171875 -0.1875 C 7.171875 -0.46875 6.96875 -0.796875 6.8125 -0.828125 C 6.421875 -0.96875 5.734375 -1.046875 5.671875 -1.328125 C 5.671875 -3.25 5.984375 -12.34375 5.984375 -15.984375 C 5.984375 -16.703125 5.953125 -17.140625 5.953125 -17.609375 C 5.953125 -17.671875 5.953125 -17.75 6.09375 -17.828125 C 6.53125 -17.09375 15.109375 -0.109375 16.015625 0.21875 L 19.515625 0.21875 C 19.515625 0.21875 20.203125 0.109375 20.203125 -0.328125 C 20.203125 -0.328125 20.3125 -5.15625 20.421875 -10.390625 C 20.8125 -11.9375 22.046875 -11.25 22.078125 -11.9375 L 22.078125 -11.984375 C 22.078125 -12.625 20.5 -12.234375 20.5 -14.140625 C 20.5 -16.78125 20.640625 -20.59375 20.640625 -23.703125 C 20.640625 -24.28125 20.78125 -25.140625 21.21875 -25.25 C 21.53125 -25.359375 22.046875 -25.328125 22.328125 -25.546875 C 22.40625 -25.609375 22.4375 -25.796875 22.4375 -26.015625 C 22.4375 -26.546875 22.265625 -26.625 21.9375 -26.625 C 18.25 -26.625 18.109375 -26.734375 17.828125 -26.734375 Z M 17.828125 -26.734375 "/></g></g></g><g fill="#ffc800" fill-opacity="1"><g transform="translate(68.913767, 27.344526)"><g><path d="M 19.875 -27.015625 C 12.65625 -27.015625 9.703125 -27.234375 6.78125 -27.234375 C 5.234375 -27.234375 3.21875 -27.203125 2.53125 -27.09375 C 2.265625 -27.0625 2.203125 -26.84375 2.203125 -26.625 C 2.203125 -26.265625 2.3125 -26.125 2.5625 -26.125 L 2.8125 -26.125 C 3.109375 -26.125 3.53125 -26.078125 3.578125 -25.828125 C 4.046875 -23.34375 4.1875 -18.65625 4.1875 -14 C 4.1875 -11.71875 2.59375 -12.59375 2.59375 -11.828125 L 2.59375 -11.796875 C 2.59375 -11.21875 4.15625 -11.546875 4.15625 -10 C 4.15625 -5.84375 3.9375 -1.15625 3.9375 -0.578125 C 3.71875 -0.578125 3.390625 -0.5 2.921875 -0.359375 C 2.703125 -0.328125 2.53125 -0.03125 2.53125 0.28125 C 2.53125 0.5 2.640625 0.796875 2.84375 0.796875 C 2.953125 0.796875 3.0625 0.75 3.21875 0.71875 L 3.25 0.71875 C 4 0.28125 8.59375 0.140625 12.84375 0.140625 C 15.078125 0.140625 17.25 0.25 18.71875 0.25 C 20.015625 0.25 20.015625 -4.546875 20.015625 -5.15625 C 20.015625 -5.625 19.625 -5.671875 19.296875 -5.671875 C 18.796875 -5.671875 18.609375 -5.34375 18.609375 -5.15625 C 18.40625 -2.734375 15.625 -1.015625 13.5 -1.015625 C 10.78125 -1.046875 10.421875 -1.59375 10.3125 -3.359375 C 10.171875 -5.34375 10.140625 -8.984375 10.140625 -12.734375 C 11.6875 -12.8125 13.171875 -12.921875 14.640625 -12.921875 C 15.796875 -12.921875 16.703125 -11.21875 17.09375 -11.21875 C 17.25 -11.21875 17.28125 -11.515625 17.28125 -11.828125 C 17.28125 -12.296875 17.203125 -12.921875 17.203125 -13.234375 C 17.203125 -13.5625 17.28125 -14.328125 17.28125 -14.90625 C 17.28125 -15.296875 17.25 -15.625 17.09375 -15.625 C 16.703125 -15.625 15.984375 -14 14.578125 -14 C 13.75 -14 12.015625 -13.96875 10.140625 -13.96875 C 10.140625 -18.078125 10.203125 -22.1875 10.359375 -24.5625 C 10.390625 -25.21875 10.75 -25.90625 11.609375 -25.90625 C 12.984375 -25.90625 13.921875 -25.796875 14.859375 -25.796875 C 17.09375 -25.796875 18.1875 -24.609375 18.1875 -22.84375 C 18.1875 -22.515625 18.140625 -22.40625 18.140625 -22.265625 C 18.140625 -21.9375 18.328125 -21.578125 19.078125 -21.578125 L 19.1875 -21.578125 C 19.84375 -21.609375 19.234375 -24.09375 20.34375 -26.484375 C 20.34375 -26.515625 20.390625 -26.59375 20.390625 -26.625 C 20.390625 -26.953125 20.015625 -27.015625 19.875 -27.015625 Z M 19.875 -27.015625 "/></g></g></g><g fill="#ffc800" fill-opacity="1"><g transform="translate(89.369138, 27.344526)"><g><path d="M 13.3125 -26.953125 C 6.671875 -26.953125 2.265625 -22.484375 2.265625 -14.609375 L 2.265625 -13.390625 C 1.984375 -11.984375 0.75 -12.453125 0.75 -11.828125 L 0.75 -11.796875 C 0.796875 -11.140625 2.234375 -11.609375 2.453125 -9.890625 C 3.28125 -3.609375 4.875 0.46875 10.96875 0.46875 C 16.59375 0.46875 16.78125 -4.578125 16.84375 -6.640625 C 16.84375 -6.859375 16.890625 -7.03125 16.890625 -7.171875 C 16.890625 -7.578125 16.3125 -7.796875 15.796875 -7.796875 C 15.40625 -7.796875 15.015625 -7.65625 14.96875 -7.390625 C 14.9375 -7.28125 14.9375 -7.109375 14.9375 -6.890625 C 14.9375 -6.5 14.96875 -5.984375 14.96875 -5.40625 C 14.96875 -3.46875 14.640625 -0.9375 12.015625 -0.9375 C 9.671875 -0.9375 8.625 -5.875 8.625 -11.359375 C 8.625 -16.921875 9.703125 -23.046875 11.546875 -24.96875 C 11.796875 -25.21875 12.265625 -25.4375 12.8125 -25.4375 C 13.78125 -25.4375 14.90625 -24.640625 14.90625 -21.640625 L 14.90625 -21.140625 C 14.90625 -20.8125 15.1875 -20.28125 16.234375 -20.28125 C 16.53125 -20.28125 16.625 -20.5 16.671875 -20.59375 C 16.890625 -22.484375 16.53125 -25.109375 17.609375 -26.59375 C 17.640625 -26.65625 17.671875 -26.703125 17.671875 -26.765625 C 17.671875 -26.984375 17.3125 -27.015625 17 -27.015625 C 15.484375 -27.015625 14.390625 -26.953125 13.3125 -26.953125 Z M 13.3125 -26.953125 "/></g></g></g><g fill="#ffc800" fill-opacity="1"><g transform="translate(106.974457, 27.344526)"><g><path d="M 20.671875 -27.390625 C 18.140625 -27.203125 8.4375 -26.921875 3.421875 -26.921875 L 1.953125 -26.921875 C 0.9375 -26.921875 0.75 -25.765625 0.75 -24.5 C 0.75 -23.671875 0.828125 -22.796875 0.828125 -22.109375 C 0.828125 -21.609375 0.75 -21.390625 0.75 -21.171875 C 0.75 -21 0.828125 -20.8125 1.015625 -20.78125 C 1.15625 -20.75 1.328125 -20.75 1.546875 -20.75 L 2.125 -20.75 C 2.484375 -20.8125 2.5625 -21.171875 2.5625 -21.640625 C 2.5625 -22.046875 2.53125 -22.515625 2.53125 -23.015625 C 2.53125 -24.28125 2.84375 -25.578125 5.34375 -25.578125 C 6.5 -25.578125 7.75 -25.578125 7.75 -24.421875 C 7.75 -24.09375 7.71875 -23.734375 7.71875 -23.234375 C 7.6875 -22.65625 7.65625 -18.515625 7.578125 -14.03125 C 7.328125 -12.265625 5.953125 -12.953125 5.953125 -12.234375 L 5.953125 -12.1875 C 5.953125 -11.609375 7.25 -11.9375 7.546875 -10.390625 C 7.46875 -6.171875 7.390625 -2.453125 7.359375 -1.953125 C 7.359375 -1.296875 6.921875 -1.265625 6.171875 -1.234375 C 5.625 -1.1875 5.15625 -1.15625 5.15625 -0.609375 C 5.15625 -0.359375 5.1875 -0.03125 5.484375 -0.03125 C 6.140625 -0.03125 13.890625 0 14.9375 0.03125 C 15.875 0.03125 15.90625 -0.390625 15.90625 -0.9375 C 15.90625 -1.234375 15.578125 -1.265625 15.15625 -1.265625 L 14.46875 -1.265625 C 14.171875 -1.265625 13.921875 -1.265625 13.8125 -1.375 C 13.390625 -1.734375 13.234375 -5.734375 13.234375 -10.3125 C 13.5 -12.015625 14.828125 -11.359375 14.828125 -12.046875 C 14.828125 -12.65625 13.640625 -12.34375 13.234375 -13.640625 C 13.3125 -18.21875 13.59375 -22.65625 13.78125 -23.984375 C 13.859375 -24.53125 13.890625 -25.65625 14.328125 -25.6875 C 14.90625 -25.6875 15.328125 -25.765625 15.796875 -25.765625 C 18.46875 -25.765625 19.078125 -25.078125 19.078125 -24.03125 C 19.078125 -23.421875 18.875 -22.6875 18.765625 -21.859375 C 18.765625 -21.53125 19.40625 -21 19.921875 -21 C 20.5 -21 20.390625 -21.140625 20.59375 -21.828125 C 20.8125 -22.515625 21.46875 -24.640625 21.46875 -26.046875 C 21.46875 -26.84375 21.28125 -27.390625 20.671875 -27.390625 Z M 20.671875 -27.390625 "/></g></g></g><g fill="#ffc800" fill-opacity="1"><g transform="translate(128.007043, 27.344526)"><g><path d="M 23.09375 -2.0625 C 22.65625 -2.0625 22.265625 -1.015625 21.28125 -1.015625 C 21.21875 -1.015625 21.140625 -1.046875 21.03125 -1.046875 C 20.8125 -1.953125 20.203125 -5.375 19.59375 -9.484375 C 19.734375 -10.890625 20.921875 -10.578125 20.921875 -11.140625 L 20.921875 -11.1875 C 20.859375 -11.796875 19.625 -11.25 19.078125 -12.703125 C 18.359375 -17.75 17.75 -23.015625 17.75 -25.328125 C 17.75 -26.046875 17.78125 -26.484375 17.9375 -26.546875 C 18.046875 -26.625 18.21875 -26.8125 19.234375 -27.09375 C 19.375 -27.125 19.484375 -27.453125 19.484375 -27.78125 C 19.484375 -28.0625 19.40625 -28.46875 19.078125 -28.46875 C 18.984375 -28.46875 18.90625 -28.421875 18.796875 -28.359375 C 18.046875 -27.640625 17.09375 -27.59375 16.203125 -27.59375 C 14.171875 -27.59375 11.359375 -28 8.953125 -28 C 5.734375 -28 3.75 -27.234375 3 -24.421875 C 2.953125 -24.25 2.921875 -24.09375 2.921875 -23.953125 C 2.921875 -23.484375 3.28125 -23.046875 3.71875 -23.046875 C 3.9375 -23.046875 4.15625 -23.15625 4.15625 -23.265625 L 4.15625 -23.421875 C 4.15625 -25.546875 6.03125 -26.734375 7.828125 -26.734375 C 7.796875 -26.546875 7.75 -26.34375 7.75 -26.046875 C 7.75 -24.03125 6.703125 -18.328125 5.59375 -12.984375 C 4.984375 -11.109375 3.71875 -12.125 3.578125 -11.4375 L 3.578125 -11.359375 C 3.578125 -10.859375 4.765625 -10.859375 4.765625 -9.375 C 4.15625 -6.421875 3.640625 -4.15625 3.28125 -2.890625 C 3.0625 -2.0625 2.53125 -1.15625 1.65625 -0.828125 C 1.296875 -0.6875 0.71875 -0.25 0.71875 0.109375 C 0.71875 0.25 0.796875 0.28125 0.90625 0.28125 C 1.515625 0.28125 2.734375 0 6.75 0 C 6.890625 0 7 -0.078125 7 -0.21875 L 7 -0.28125 C 7 -0.4375 6.921875 -0.9375 6.75 -0.96875 C 5.671875 -1.015625 5.375 -1.40625 5.375 -2.0625 C 5.375 -2.53125 5.5625 -2.953125 5.5625 -3.359375 C 5.671875 -4.078125 6.234375 -6.859375 7 -10.203125 C 8.125 -10.3125 9.375 -10.359375 10.71875 -10.359375 C 11.65625 -10.359375 12.5625 -10.3125 13.453125 -10.28125 C 13.921875 -6.75 14.28125 -3.75 14.28125 -2.421875 C 14.171875 -1.4375 13.640625 -0.75 12.453125 -0.328125 C 11.984375 -0.140625 11.828125 0.03125 11.828125 0.25 C 11.828125 0.546875 11.984375 0.96875 12.265625 0.96875 C 12.40625 0.96875 12.59375 0.859375 12.703125 0.796875 C 13.703125 0.25 14.75 0.109375 15.84375 0.109375 L 21.359375 0.109375 C 22.484375 0.109375 23.34375 -1.1875 23.34375 -1.765625 C 23.34375 -1.953125 23.234375 -2.0625 23.09375 -2.0625 Z M 7.21875 -11.328125 L 10.609375 -26.453125 C 10.828125 -26.453125 11.046875 -26.484375 11.1875 -26.484375 C 11.1875 -26.484375 12.40625 -18.296875 13.3125 -11.46875 L 12.875 -11.46875 C 10.71875 -11.46875 8.734375 -11.40625 7.21875 -11.328125 Z M 7.21875 -11.328125 "/></g></g></g><g fill="#020301" fill-opacity="1"><g transform="translate(8.079395, 29.669656)"><g><path d="M 13.3125 -26.953125 C 6.671875 -26.953125 2.265625 -22.484375 2.265625 -14.609375 L 2.265625 -13.390625 C 1.984375 -11.984375 0.75 -12.453125 0.75 -11.828125 L 0.75 -11.796875 C 0.796875 -11.140625 2.234375 -11.609375 2.453125 -9.890625 C 3.28125 -3.609375 4.875 0.46875 10.96875 0.46875 C 16.59375 0.46875 16.78125 -4.578125 16.84375 -6.640625 C 16.84375 -6.859375 16.890625 -7.03125 16.890625 -7.171875 C 16.890625 -7.578125 16.3125 -7.796875 15.796875 -7.796875 C 15.40625 -7.796875 15.015625 -7.65625 14.96875 -7.390625 C 14.9375 -7.28125 14.9375 -7.109375 14.9375 -6.890625 C 14.9375 -6.5 14.96875 -5.984375 14.96875 -5.40625 C 14.96875 -3.46875 14.640625 -0.9375 12.015625 -0.9375 C 9.671875 -0.9375 8.625 -5.875 8.625 -11.359375 C 8.625 -16.921875 9.703125 -23.046875 11.546875 -24.96875 C 11.796875 -25.21875 12.265625 -25.4375 12.8125 -25.4375 C 13.78125 -25.4375 14.90625 -24.640625 14.90625 -21.640625 L 14.90625 -21.140625 C 14.90625 -20.8125 15.1875 -20.28125 16.234375 -20.28125 C 16.53125 -20.28125 16.625 -20.5 16.671875 -20.59375 C 16.890625 -22.484375 16.53125 -25.109375 17.609375 -26.59375 C 17.640625 -26.65625 17.671875 -26.703125 17.671875 -26.765625 C 17.671875 -26.984375 17.3125 -27.015625 17 -27.015625 C 15.484375 -27.015625 14.390625 -26.953125 13.3125 -26.953125 Z M 13.3125 -26.953125 "/></g></g></g><g fill="#020301" fill-opacity="1"><g transform="translate(25.683715, 29.669656)"><g><path d="M 21.03125 -13.859375 C 21.03125 -19.59375 19.265625 -26.953125 12.515625 -26.953125 C 5.09375 -26.953125 2.234375 -18.796875 2.234375 -13.28125 C 1.796875 -12.1875 0.71875 -12.65625 0.71875 -12.046875 C 0.71875 -11.46875 1.796875 -11.71875 2.203125 -10.640625 C 2.375 -6.34375 3.828125 0.71875 11.796875 0.71875 C 18.140625 0.71875 20.09375 -5.625 20.75 -10.3125 C 21.171875 -11.828125 22.40625 -11.109375 22.484375 -11.765625 L 22.484375 -11.796875 C 22.484375 -12.40625 21.109375 -12.15625 21.03125 -13.859375 Z M 11.828125 -0.328125 C 8.515625 -0.328125 8.125 -9.265625 8.125 -13.125 C 8.125 -17.390625 8.90625 -25.875 12.59375 -25.875 C 14.90625 -25.875 15.328125 -21 15.328125 -14.078125 C 15.328125 -10.359375 15.328125 -0.328125 11.828125 -0.328125 Z M 11.828125 -0.328125 "/></g></g></g><g fill="#020301" fill-opacity="1"><g transform="translate(47.725203, 29.669656)"><g><path d="M 17.828125 -26.734375 C 17.5 -26.734375 17.390625 -26.34375 17.390625 -26.125 C 17.390625 -25.6875 17.71875 -25.40625 17.9375 -25.359375 C 18.71875 -25.25 19.234375 -25.546875 19.234375 -23.84375 C 19.234375 -22.4375 18.765625 -6.921875 18.6875 -6.453125 C 18.140625 -7.359375 9.484375 -24.859375 8.484375 -26.59375 C 8.375 -26.765625 8.265625 -26.875 8.078125 -26.875 L 7.96875 -26.875 C 7.28125 -26.734375 6.234375 -26.703125 5.125 -26.703125 C 4.4375 -26.703125 3.75 -26.734375 2.703125 -26.734375 C 1.796875 -26.734375 1.84375 -26.078125 1.796875 -25.875 C 1.84375 -25.40625 1.984375 -25.296875 2.375 -25.296875 C 2.59375 -25.296875 2.953125 -25.328125 3.390625 -25.328125 C 3.96875 -25.328125 4.046875 -24.859375 4.109375 -24.25 L 4.109375 -24.171875 C 4.15625 -23.625 4.1875 -21.796875 4.1875 -19.40625 C 4.1875 -17.71875 4.15625 -15.765625 4.15625 -13.78125 C 3.78125 -12.1875 2.53125 -12.84375 2.53125 -12.1875 L 2.53125 -12.15625 C 2.53125 -11.515625 4 -11.90625 4.109375 -9.953125 C 4.078125 -6.234375 4 -3.0625 3.96875 -2.453125 L 3.96875 -2.34375 C 3.9375 -1.765625 3.890625 -1.078125 2.734375 -0.90625 C 2.34375 -0.796875 2.0625 -0.46875 2.0625 -0.1875 C 2.0625 0.078125 2.265625 0.25 2.484375 0.25 C 2.734375 0.25 3.46875 0.109375 4.71875 0.109375 C 5.59375 0.109375 6.5 0.21875 6.75 0.21875 C 7 0.21875 7.171875 0.03125 7.171875 -0.1875 C 7.171875 -0.46875 6.96875 -0.796875 6.8125 -0.828125 C 6.421875 -0.96875 5.734375 -1.046875 5.671875 -1.328125 C 5.671875 -3.25 5.984375 -12.34375 5.984375 -15.984375 C 5.984375 -16.703125 5.953125 -17.140625 5.953125 -17.609375 C 5.953125 -17.671875 5.953125 -17.75 6.09375 -17.828125 C 6.53125 -17.09375 15.109375 -0.109375 16.015625 0.21875 L 19.515625 0.21875 C 19.515625 0.21875 20.203125 0.109375 20.203125 -0.328125 C 20.203125 -0.328125 20.3125 -5.15625 20.421875 -10.390625 C 20.8125 -11.9375 22.046875 -11.25 22.078125 -11.9375 L 22.078125 -11.984375 C 22.078125 -12.625 20.5 -12.234375 20.5 -14.140625 C 20.5 -16.78125 20.640625 -20.59375 20.640625 -23.703125 C 20.640625 -24.28125 20.78125 -25.140625 21.21875 -25.25 C 21.53125 -25.359375 22.046875 -25.328125 22.328125 -25.546875 C 22.40625 -25.609375 22.4375 -25.796875 22.4375 -26.015625 C 22.4375 -26.546875 22.265625 -26.625 21.9375 -26.625 C 18.25 -26.625 18.109375 -26.734375 17.828125 -26.734375 Z M 17.828125 -26.734375 "/></g></g></g><g fill="#020301" fill-opacity="1"><g transform="translate(70.416039, 29.669656)"><g><path d="M 19.875 -27.015625 C 12.65625 -27.015625 9.703125 -27.234375 6.78125 -27.234375 C 5.234375 -27.234375 3.21875 -27.203125 2.53125 -27.09375 C 2.265625 -27.0625 2.203125 -26.84375 2.203125 -26.625 C 2.203125 -26.265625 2.3125 -26.125 2.5625 -26.125 L 2.8125 -26.125 C 3.109375 -26.125 3.53125 -26.078125 3.578125 -25.828125 C 4.046875 -23.34375 4.1875 -18.65625 4.1875 -14 C 4.1875 -11.71875 2.59375 -12.59375 2.59375 -11.828125 L 2.59375 -11.796875 C 2.59375 -11.21875 4.15625 -11.546875 4.15625 -10 C 4.15625 -5.84375 3.9375 -1.15625 3.9375 -0.578125 C 3.71875 -0.578125 3.390625 -0.5 2.921875 -0.359375 C 2.703125 -0.328125 2.53125 -0.03125 2.53125 0.28125 C 2.53125 0.5 2.640625 0.796875 2.84375 0.796875 C 2.953125 0.796875 3.0625 0.75 3.21875 0.71875 L 3.25 0.71875 C 4 0.28125 8.59375 0.140625 12.84375 0.140625 C 15.078125 0.140625 17.25 0.25 18.71875 0.25 C 20.015625 0.25 20.015625 -4.546875 20.015625 -5.15625 C 20.015625 -5.625 19.625 -5.671875 19.296875 -5.671875 C 18.796875 -5.671875 18.609375 -5.34375 18.609375 -5.15625 C 18.40625 -2.734375 15.625 -1.015625 13.5 -1.015625 C 10.78125 -1.046875 10.421875 -1.59375 10.3125 -3.359375 C 10.171875 -5.34375 10.140625 -8.984375 10.140625 -12.734375 C 11.6875 -12.8125 13.171875 -12.921875 14.640625 -12.921875 C 15.796875 -12.921875 16.703125 -11.21875 17.09375 -11.21875 C 17.25 -11.21875 17.28125 -11.515625 17.28125 -11.828125 C 17.28125 -12.296875 17.203125 -12.921875 17.203125 -13.234375 C 17.203125 -13.5625 17.28125 -14.328125 17.28125 -14.90625 C 17.28125 -15.296875 17.25 -15.625 17.09375 -15.625 C 16.703125 -15.625 15.984375 -14 14.578125 -14 C 13.75 -14 12.015625 -13.96875 10.140625 -13.96875 C 10.140625 -18.078125 10.203125 -22.1875 10.359375 -24.5625 C 10.390625 -25.21875 10.75 -25.90625 11.609375 -25.90625 C 12.984375 -25.90625 13.921875 -25.796875 14.859375 -25.796875 C 17.09375 -25.796875 18.1875 -24.609375 18.1875 -22.84375 C 18.1875 -22.515625 18.140625 -22.40625 18.140625 -22.265625 C 18.140625 -21.9375 18.328125 -21.578125 19.078125 -21.578125 L 19.1875 -21.578125 C 19.84375 -21.609375 19.234375 -24.09375 20.34375 -26.484375 C 20.34375 -26.515625 20.390625 -26.59375 20.390625 -26.625 C 20.390625 -26.953125 20.015625 -27.015625 19.875 -27.015625 Z M 19.875 -27.015625 "/></g></g></g><g fill="#020301" fill-opacity="1"><g transform="translate(90.87025, 29.669656)"><g><path d="M 13.3125 -26.953125 C 6.671875 -26.953125 2.265625 -22.484375 2.265625 -14.609375 L 2.265625 -13.390625 C 1.984375 -11.984375 0.75 -12.453125 0.75 -11.828125 L 0.75 -11.796875 C 0.796875 -11.140625 2.234375 -11.609375 2.453125 -9.890625 C 3.28125 -3.609375 4.875 0.46875 10.96875 0.46875 C 16.59375 0.46875 16.78125 -4.578125 16.84375 -6.640625 C 16.84375 -6.859375 16.890625 -7.03125 16.890625 -7.171875 C 16.890625 -7.578125 16.3125 -7.796875 15.796875 -7.796875 C 15.40625 -7.796875 15.015625 -7.65625 14.96875 -7.390625 C 14.9375 -7.28125 14.9375 -7.109375 14.9375 -6.890625 C 14.9375 -6.5 14.96875 -5.984375 14.96875 -5.40625 C 14.96875 -3.46875 14.640625 -0.9375 12.015625 -0.9375 C 9.671875 -0.9375 8.625 -5.875 8.625 -11.359375 C 8.625 -16.921875 9.703125 -23.046875 11.546875 -24.96875 C 11.796875 -25.21875 12.265625 -25.4375 12.8125 -25.4375 C 13.78125 -25.4375 14.90625 -24.640625 14.90625 -21.640625 L 14.90625 -21.140625 C 14.90625 -20.8125 15.1875 -20.28125 16.234375 -20.28125 C 16.53125 -20.28125 16.625 -20.5 16.671875 -20.59375 C 16.890625 -22.484375 16.53125 -25.109375 17.609375 -26.59375 C 17.640625 -26.65625 17.671875 -26.703125 17.671875 -26.765625 C 17.671875 -26.984375 17.3125 -27.015625 17 -27.015625 C 15.484375 -27.015625 14.390625 -26.953125 13.3125 -26.953125 Z M 13.3125 -26.953125 "/></g></g></g><g fill="#020301" fill-opacity="1"><g transform="translate(108.474573, 29.669656)"><g><path d="M 20.671875 -27.390625 C 18.140625 -27.203125 8.4375 -26.921875 3.421875 -26.921875 L 1.953125 -26.921875 C 0.9375 -26.921875 0.75 -25.765625 0.75 -24.5 C 0.75 -23.671875 0.828125 -22.796875 0.828125 -22.109375 C 0.828125 -21.609375 0.75 -21.390625 0.75 -21.171875 C 0.75 -21 0.828125 -20.8125 1.015625 -20.78125 C 1.15625 -20.75 1.328125 -20.75 1.546875 -20.75 L 2.125 -20.75 C 2.484375 -20.8125 2.5625 -21.171875 2.5625 -21.640625 C 2.5625 -22.046875 2.53125 -22.515625 2.53125 -23.015625 C 2.53125 -24.28125 2.84375 -25.578125 5.34375 -25.578125 C 6.5 -25.578125 7.75 -25.578125 7.75 -24.421875 C 7.75 -24.09375 7.71875 -23.734375 7.71875 -23.234375 C 7.6875 -22.65625 7.65625 -18.515625 7.578125 -14.03125 C 7.328125 -12.265625 5.953125 -12.953125 5.953125 -12.234375 L 5.953125 -12.1875 C 5.953125 -11.609375 7.25 -11.9375 7.546875 -10.390625 C 7.46875 -6.171875 7.390625 -2.453125 7.359375 -1.953125 C 7.359375 -1.296875 6.921875 -1.265625 6.171875 -1.234375 C 5.625 -1.1875 5.15625 -1.15625 5.15625 -0.609375 C 5.15625 -0.359375 5.1875 -0.03125 5.484375 -0.03125 C 6.140625 -0.03125 13.890625 0 14.9375 0.03125 C 15.875 0.03125 15.90625 -0.390625 15.90625 -0.9375 C 15.90625 -1.234375 15.578125 -1.265625 15.15625 -1.265625 L 14.46875 -1.265625 C 14.171875 -1.265625 13.921875 -1.265625 13.8125 -1.375 C 13.390625 -1.734375 13.234375 -5.734375 13.234375 -10.3125 C 13.5 -12.015625 14.828125 -11.359375 14.828125 -12.046875 C 14.828125 -12.65625 13.640625 -12.34375 13.234375 -13.640625 C 13.3125 -18.21875 13.59375 -22.65625 13.78125 -23.984375 C 13.859375 -24.53125 13.890625 -25.65625 14.328125 -25.6875 C 14.90625 -25.6875 15.328125 -25.765625 15.796875 -25.765625 C 18.46875 -25.765625 19.078125 -25.078125 19.078125 -24.03125 C 19.078125 -23.421875 18.875 -22.6875 18.765625 -21.859375 C 18.765625 -21.53125 19.40625 -21 19.921875 -21 C 20.5 -21 20.390625 -21.140625 20.59375 -21.828125 C 20.8125 -22.515625 21.46875 -24.640625 21.46875 -26.046875 C 21.46875 -26.84375 21.28125 -27.390625 20.671875 -27.390625 Z M 20.671875 -27.390625 "/></g></g></g><g fill="#020301" fill-opacity="1"><g transform="translate(129.505982, 29.669656)"><g><path d="M 23.09375 -2.0625 C 22.65625 -2.0625 22.265625 -1.015625 21.28125 -1.015625 C 21.21875 -1.015625 21.140625 -1.046875 21.03125 -1.046875 C 20.8125 -1.953125 20.203125 -5.375 19.59375 -9.484375 C 19.734375 -10.890625 20.921875 -10.578125 20.921875 -11.140625 L 20.921875 -11.1875 C 20.859375 -11.796875 19.625 -11.25 19.078125 -12.703125 C 18.359375 -17.75 17.75 -23.015625 17.75 -25.328125 C 17.75 -26.046875 17.78125 -26.484375 17.9375 -26.546875 C 18.046875 -26.625 18.21875 -26.8125 19.234375 -27.09375 C 19.375 -27.125 19.484375 -27.453125 19.484375 -27.78125 C 19.484375 -28.0625 19.40625 -28.46875 19.078125 -28.46875 C 18.984375 -28.46875 18.90625 -28.421875 18.796875 -28.359375 C 18.046875 -27.640625 17.09375 -27.59375 16.203125 -27.59375 C 14.171875 -27.59375 11.359375 -28 8.953125 -28 C 5.734375 -28 3.75 -27.234375 3 -24.421875 C 2.953125 -24.25 2.921875 -24.09375 2.921875 -23.953125 C 2.921875 -23.484375 3.28125 -23.046875 3.71875 -23.046875 C 3.9375 -23.046875 4.15625 -23.15625 4.15625 -23.265625 L 4.15625 -23.421875 C 4.15625 -25.546875 6.03125 -26.734375 7.828125 -26.734375 C 7.796875 -26.546875 7.75 -26.34375 7.75 -26.046875 C 7.75 -24.03125 6.703125 -18.328125 5.59375 -12.984375 C 4.984375 -11.109375 3.71875 -12.125 3.578125 -11.4375 L 3.578125 -11.359375 C 3.578125 -10.859375 4.765625 -10.859375 4.765625 -9.375 C 4.15625 -6.421875 3.640625 -4.15625 3.28125 -2.890625 C 3.0625 -2.0625 2.53125 -1.15625 1.65625 -0.828125 C 1.296875 -0.6875 0.71875 -0.25 0.71875 0.109375 C 0.71875 0.25 0.796875 0.28125 0.90625 0.28125 C 1.515625 0.28125 2.734375 0 6.75 0 C 6.890625 0 7 -0.078125 7 -0.21875 L 7 -0.28125 C 7 -0.4375 6.921875 -0.9375 6.75 -0.96875 C 5.671875 -1.015625 5.375 -1.40625 5.375 -2.0625 C 5.375 -2.53125 5.5625 -2.953125 5.5625 -3.359375 C 5.671875 -4.078125 6.234375 -6.859375 7 -10.203125 C 8.125 -10.3125 9.375 -10.359375 10.71875 -10.359375 C 11.65625 -10.359375 12.5625 -10.3125 13.453125 -10.28125 C 13.921875 -6.75 14.28125 -3.75 14.28125 -2.421875 C 14.171875 -1.4375 13.640625 -0.75 12.453125 -0.328125 C 11.984375 -0.140625 11.828125 0.03125 11.828125 0.25 C 11.828125 0.546875 11.984375 0.96875 12.265625 0.96875 C 12.40625 0.96875 12.59375 0.859375 12.703125 0.796875 C 13.703125 0.25 14.75 0.109375 15.84375 0.109375 L 21.359375 0.109375 C 22.484375 0.109375 23.34375 -1.1875 23.34375 -1.765625 C 23.34375 -1.953125 23.234375 -2.0625 23.09375 -2.0625 Z M 7.21875 -11.328125 L 10.609375 -26.453125 C 10.828125 -26.453125 11.046875 -26.484375 11.1875 -26.484375 C 11.1875 -26.484375 12.40625 -18.296875 13.3125 -11.46875 L 12.875 -11.46875 C 10.71875 -11.46875 8.734375 -11.40625 7.21875 -11.328125 Z M 7.21875 -11.328125 "/></g></g></g><g clip-path="url(#181336aa5d)"><path stroke-linecap="butt" transform="matrix(0.735577, 0, 0, 0.735577, 144.034095, 17.151623)" fill="none" stroke-linejoin="miter" d="M 14.339679 25.815115 C 14.12726 25.746079 14.021051 25.560213 14.021051 25.246896 C 14.021051 24.753023 14.058225 24.264461 14.132571 23.770589 C 14.695479 18.741585 15.762881 13.824101 17.340087 9.028758 C 17.504712 8.577369 17.706509 8.035702 17.940169 7.387826 C 18.173829 6.73995 18.428731 6.102695 18.699565 5.470751 C 18.970398 4.833496 19.209369 4.313071 19.421787 3.909476 C 19.490823 3.771404 19.607653 3.702368 19.772277 3.702368 C 19.841313 3.702368 19.889107 3.7183 19.910349 3.739542 C 20.122767 3.808578 20.175872 3.973202 20.059042 4.228104 C 20.059042 4.228104 20.03249 4.30245 19.979385 4.445832 C 19.092539 6.585947 18.322522 8.757924 17.674646 10.956454 C 17.032081 13.154983 16.474483 15.390686 16.001852 17.674183 C 15.98061 17.785703 15.959368 17.913154 15.932816 18.051226 C 15.906264 18.194608 15.869091 18.33799 15.821297 18.481373 C 15.752261 18.784069 15.731019 19.076144 15.752261 19.357598 C 15.922195 19.26732 16.033715 19.155801 16.086819 19.023039 C 16.145234 18.895588 16.198339 18.778758 16.246133 18.661928 C 16.362963 18.396405 16.495725 18.120262 16.633797 17.828186 C 16.777179 17.536111 16.931182 17.201552 17.095806 16.82982 C 17.425055 16.123529 17.802097 15.369444 18.232244 14.572876 C 18.667702 13.765686 19.150954 12.953186 19.671378 12.135376 C 19.931591 11.731781 20.191803 11.338807 20.462637 10.956454 C 20.73347 10.56348 20.998993 10.207679 21.253895 9.878431 C 21.795562 9.193382 22.347849 8.614542 22.910758 8.13129 C 23.478977 7.648039 24.020643 7.345342 24.535758 7.228512 C 24.748176 7.159476 24.923421 7.122303 25.061493 7.122303 C 25.60316 7.122303 25.95365 7.440931 26.118274 8.078186 C 26.240415 8.407434 26.288209 8.731372 26.256346 9.049999 C 26.235104 9.368627 26.203242 9.687254 26.155448 10.016503 C 26.134206 10.228921 26.203242 10.33513 26.367866 10.33513 C 26.436902 10.33513 26.484696 10.324509 26.505938 10.303268 C 26.553732 10.276715 26.606836 10.255473 26.665252 10.234232 C 26.723667 10.202369 26.782082 10.175817 26.824565 10.154575 C 26.872359 10.133333 26.925464 10.106781 26.983879 10.085539 C 27.042294 10.064297 27.100709 10.037745 27.143193 10.016503 L 29.617866 9.06062 C 29.66035 9.039379 29.718765 9.012826 29.787801 8.991584 C 29.856837 8.970343 29.941804 8.94379 30.037392 8.922548 C 30.106428 8.901307 30.170154 8.885375 30.228569 8.869444 C 30.292294 8.858823 30.345399 8.853513 30.393193 8.853513 C 30.674647 8.805718 30.833961 8.93848 30.881755 9.241176 C 30.902997 9.474836 30.812719 9.628839 30.600301 9.697875 C 30.435677 9.745669 30.286984 9.798774 30.143601 9.8625 C 30.00553 9.920915 29.851526 9.968709 29.686902 10.016503 C 29.516967 10.064297 29.362964 10.122712 29.219582 10.197058 C 29.08151 10.266094 28.932817 10.324509 28.762882 10.372303 C 28.603569 10.436029 28.433634 10.510375 28.258389 10.584722 C 28.077833 10.653758 27.891967 10.733415 27.706101 10.823692 C 27.546788 10.924591 27.376853 11.004248 27.196297 11.073284 C 27.021052 11.14232 26.840497 11.211356 26.654631 11.280392 C 26.107653 11.519362 25.709369 11.95482 25.449157 12.592075 C 25.263291 13.107189 24.960595 13.701961 24.535758 14.371078 C 24.110921 15.045506 23.62767 15.656209 23.091313 16.208497 C 22.549647 16.760784 22.00798 17.143137 21.461003 17.355556 C 21.301689 17.445833 21.126444 17.488317 20.935267 17.488317 C 20.653813 17.488317 20.425464 17.382108 20.250218 17.16969 C 20.069663 16.967892 20.005937 16.697059 20.059042 16.3625 C 20.128078 15.799591 20.420153 15.210131 20.935267 14.588807 C 21.455692 13.962173 22.039843 13.378023 22.70365 12.841666 C 23.362147 12.294689 23.914434 11.880474 24.355202 11.599019 C 24.849075 11.296323 25.119908 10.860866 25.173013 10.303268 C 25.194255 10.133333 25.220807 9.98464 25.242049 9.846568 C 25.263291 9.703186 25.289843 9.543872 25.311085 9.379248 C 25.358879 9.049999 25.348258 8.747303 25.279222 8.465849 C 25.210186 8.232189 25.077425 8.115359 24.891559 8.115359 C 24.769418 8.115359 24.695072 8.12598 24.67383 8.147222 C 24.158715 8.380882 23.712637 8.688888 23.340905 9.06062 C 22.443438 9.841258 21.572522 10.866176 20.722849 12.135376 C 19.878486 13.404575 19.097849 14.779984 18.380937 16.261601 C 17.664025 17.737909 17.032081 19.203595 16.495725 20.65335 C 15.954058 22.097794 15.534532 23.382925 15.226525 24.508742 C 15.199973 24.630883 15.157489 24.763644 15.099074 24.912337 C 15.040659 25.06634 14.987555 25.230965 14.945071 25.395589 C 14.844172 25.677043 14.647685 25.815115 14.339679 25.815115 Z M 21.253895 16.399673 C 21.280447 16.399673 21.301689 16.389052 21.322931 16.378431 C 21.349483 16.36781 21.381346 16.351879 21.42914 16.330637 C 21.997359 15.932353 22.507163 15.486274 22.958552 14.992402 C 23.420562 14.498529 23.781673 13.909068 24.047196 13.22933 C 24.158715 13.181536 24.185268 13.123121 24.116232 13.048774 C 24.068438 12.979738 24.020643 13.00098 23.967539 13.11781 C 23.335594 13.447059 22.799238 13.866585 22.347849 14.371078 C 21.901771 14.880882 21.476934 15.422549 21.073339 16.01201 C 21.030856 16.197876 21.041477 16.304085 21.115823 16.330637 C 21.163617 16.373121 21.211411 16.399673 21.253895 16.399673 Z M 30.281673 18.869036 C 29.952425 18.869036 29.697523 18.688481 29.506346 18.33268 C 29.31517 17.98219 29.19834 17.668873 29.150546 17.387418 C 29.129304 17.270588 29.118683 17.153758 29.118683 17.036928 C 29.118683 16.920098 29.118683 16.813889 29.118683 16.718301 C 29.118683 16.601471 29.118683 16.505882 29.118683 16.420915 C 29.118683 16.335948 29.118683 16.272222 29.118683 16.224428 C 29.139925 15.326961 29.20365 14.493219 29.30986 13.717892 C 29.416069 12.942565 29.554141 12.18317 29.718765 11.429085 C 29.766559 11.237908 29.809043 11.036111 29.840905 10.823692 C 29.878079 10.611274 29.809043 10.414787 29.644418 10.234232 C 29.575382 10.133333 29.559451 10.037745 29.591314 9.947467 C 29.628487 9.851879 29.681592 9.766911 29.755938 9.697875 C 30.01615 9.368627 30.212637 9.028758 30.350709 8.662336 C 30.494092 8.295914 30.621543 7.913561 30.738373 7.509967 C 30.993275 6.713398 31.311902 5.81062 31.694255 4.796323 C 32.071298 3.787336 32.496134 2.767728 32.958144 1.732189 C 33.430775 0.691339 33.935268 -0.275165 34.476935 -1.177942 C 35.018602 -2.086031 35.597442 -2.845426 36.202834 -3.461439 C 36.39401 -3.599511 36.558635 -3.668547 36.702017 -3.668547 C 36.728569 -3.668547 36.755121 -3.657926 36.792295 -3.647305 C 36.824157 -3.636684 36.877262 -3.620753 36.946298 -3.599511 C 37.110922 -3.530475 37.211821 -3.429577 37.248994 -3.296815 C 37.280857 -3.169364 37.286167 -3.036603 37.264925 -2.89322 C 37.105612 -2.186929 36.818847 -1.369119 36.404631 -0.434478 C 35.990416 0.489541 35.517785 1.434803 34.992049 2.411927 C 34.461004 3.389051 33.924647 4.318382 33.382981 5.205228 C 32.841314 6.081454 32.373994 6.830228 31.975709 7.440931 C 31.550873 8.051633 31.216314 8.837581 30.972033 9.798774 C 30.722441 10.765277 30.525954 11.747712 30.382572 12.756699 C 30.2445 13.755065 30.143601 14.615359 30.074565 15.337582 C 30.021461 15.693382 29.989598 16.054493 29.978977 16.420915 C 29.968356 16.787337 30.021461 17.143137 30.143601 17.488317 C 30.191396 17.679494 30.297605 17.775082 30.462229 17.775082 C 30.621543 17.775082 30.833961 17.621078 31.088863 17.318382 C 31.349075 17.015686 31.52432 16.803268 31.625219 16.681127 C 32.44303 15.624346 33.287392 14.50384 34.158308 13.314297 C 35.029223 12.124755 35.852344 10.993627 36.62767 9.915604 C 36.680775 9.814705 36.771053 9.671323 36.909125 9.474836 C 37.052507 9.273039 37.185269 9.17214 37.296788 9.17214 C 37.32334 9.17214 37.402997 9.193382 37.54638 9.241176 C 37.716314 9.310212 37.774729 9.437663 37.721625 9.628839 C 37.721625 9.820016 37.673831 9.958088 37.583553 10.053676 C 37.514517 10.197058 37.42955 10.345751 37.333961 10.499754 C 37.243684 10.648447 37.148095 10.79183 37.057818 10.929902 C 36.680775 11.402532 36.298422 11.891094 35.92138 12.400898 C 35.549648 12.905392 35.172605 13.431127 34.795563 13.967483 C 34.41852 14.50915 34.036167 15.034886 33.648504 15.55531 C 33.26084 16.070425 32.883798 16.574918 32.501445 17.068791 C 32.389925 17.259967 32.193438 17.498938 31.927915 17.791013 C 31.657082 18.083088 31.370317 18.33799 31.072932 18.550409 C 30.780856 18.762827 30.515333 18.869036 30.281673 18.869036 Z M 33.1387 4.339623 C 33.1387 4.313071 33.149321 4.29714 33.175873 4.29714 C 33.175873 4.29714 33.175873 4.313071 33.175873 4.339623 C 33.499811 3.681127 33.83437 3.017319 34.174239 2.342891 C 34.519419 1.673773 34.869909 1.009966 35.22571 0.35678 L 36.170971 -1.549674 L 36.170971 -1.592158 C 36.149729 -1.6134 36.133798 -1.634642 36.133798 -1.661194 C 36.133798 -1.6134 36.149729 -1.576227 36.170971 -1.549674 C 36.032899 -1.597469 35.963863 -1.624021 35.963863 -1.624021 C 35.868275 -1.624021 35.746134 -1.528433 35.613373 -1.342567 C 35.140742 -0.540687 34.699974 0.261192 34.285759 1.079002 C 33.871543 1.886192 33.499811 2.730555 33.175873 3.60147 C 33.059043 3.904166 33.048422 4.153757 33.1387 4.339623 Z M 43.435677 14.286111 C 43.037393 14.286111 42.745318 14.15866 42.554141 13.898448 C 42.368275 13.638235 42.246135 13.319608 42.203651 12.942565 C 42.155857 12.565523 42.134615 12.199101 42.134615 11.848611 C 42.155857 11.737091 42.182409 11.614951 42.203651 11.482189 C 42.224893 11.349428 42.246135 11.200735 42.272687 11.041421 C 42.293929 10.876797 42.30986 10.712173 42.325792 10.552859 C 42.336413 10.382924 42.352344 10.2183 42.373586 10.053676 C 42.373586 10.005882 42.378896 9.958088 42.394828 9.915604 C 42.410759 9.86781 42.432001 9.820016 42.453243 9.766911 C 42.474485 9.676634 42.42669 9.607598 42.30455 9.559803 L 42.235514 9.559803 C 42.145236 9.559803 42.0762 9.596977 42.028406 9.666013 C 42.001854 9.687254 41.969991 9.713807 41.938128 9.75098 C 41.900955 9.782843 41.874403 9.814705 41.847851 9.846568 C 41.757573 9.936846 41.672605 10.016503 41.598259 10.085539 C 41.529223 10.154575 41.460187 10.239542 41.391151 10.33513 C 41.295563 10.425408 41.205285 10.510375 41.125628 10.584722 C 41.045971 10.653758 40.955694 10.733415 40.860105 10.823692 C 40.387475 11.296323 39.86705 11.779575 39.29352 12.273447 C 38.719991 12.76732 38.12522 13.144362 37.509206 13.399264 C 37.440171 13.425817 37.376445 13.441748 37.31272 13.452369 C 37.254305 13.46299 37.2012 13.4683 37.158716 13.4683 C 36.707327 13.4683 36.452425 13.23464 36.383389 12.76201 C 36.314353 12.581454 36.303733 12.310621 36.346216 11.95482 C 36.441804 11.269771 36.585187 10.600653 36.786984 9.947467 C 36.988782 9.28897 37.264925 8.651715 37.620726 8.046323 L 37.89687 7.65866 C 38.040252 7.515277 38.167703 7.440931 38.284533 7.440931 C 38.406674 7.440931 38.502262 7.478104 38.571298 7.54714 C 38.783716 7.711764 38.804958 7.913561 38.640334 8.147222 C 38.59254 8.237499 38.539435 8.333088 38.48102 8.433986 C 38.427916 8.524264 38.35888 8.630473 38.284533 8.752614 C 38.024321 9.246486 37.811903 9.75629 37.647278 10.282026 C 37.487965 10.813071 37.360514 11.354738 37.270236 11.917647 C 37.270236 11.944199 37.270236 11.976062 37.270236 12.013235 C 37.270236 12.050408 37.270236 12.087581 37.270236 12.135376 C 37.270236 12.225653 37.31272 12.284068 37.408308 12.30531 C 37.42955 12.331862 37.477344 12.342483 37.54638 12.342483 C 37.620726 12.342483 37.716314 12.294689 37.827834 12.204411 C 37.918112 12.135376 38.0137 12.06634 38.103978 11.997304 C 38.199566 11.922957 38.300465 11.848611 38.396053 11.779575 C 38.486331 11.737091 38.576609 11.678676 38.656265 11.60964 C 38.741233 11.535294 38.831511 11.460947 38.921788 11.391911 C 39.537801 10.876797 40.111331 10.340441 40.652998 9.777532 C 41.194664 9.209313 41.7204 8.619852 42.235514 8.00915 C 42.331102 7.913561 42.410759 7.828594 42.479795 7.759558 C 42.554141 7.690522 42.633798 7.610865 42.729387 7.509967 C 42.803733 7.419689 42.878079 7.340032 42.963047 7.270996 C 43.042704 7.19665 43.127671 7.111682 43.22857 7.021405 C 43.318847 6.920506 43.414436 6.872712 43.510024 6.872712 C 43.536576 6.872712 43.616233 6.899264 43.754305 6.952369 C 43.940171 7.042646 44.025138 7.19665 44.003896 7.409068 C 43.977344 7.499346 43.961413 7.589624 43.950792 7.674591 C 43.940171 7.754248 43.92424 7.828594 43.897687 7.89763 C 43.876445 7.998529 43.849893 8.083496 43.823341 8.163153 C 43.796789 8.24812 43.775547 8.333088 43.754305 8.433986 C 43.589681 8.949101 43.451609 9.469526 43.329468 10.000571 C 43.217949 10.526307 43.132981 11.089215 43.079877 11.678676 C 43.058635 12.029166 43.058635 12.379657 43.079877 12.730147 C 43.132981 13.154983 43.297606 13.367402 43.57906 13.367402 C 43.887066 13.367402 44.248178 13.22933 44.667704 12.963807 C 45.09254 12.692974 45.522687 12.358415 45.958145 11.96013 C 46.393603 11.561846 46.797197 11.174183 47.168929 10.802451 C 47.551282 10.420098 47.843358 10.112091 48.055776 9.878431 C 48.268194 9.644771 48.496544 9.421732 48.730204 9.209313 C 48.777998 9.161519 48.831103 9.140277 48.900139 9.140277 C 49.001037 9.140277 49.080694 9.17214 49.14973 9.241176 C 49.340907 9.432352 49.388701 9.596977 49.287802 9.735049 C 49.245318 9.830637 49.202835 9.904983 49.170972 9.963398 C 49.133799 10.021813 49.096626 10.074918 49.048831 10.117402 C 48.645237 10.590032 48.151364 11.131699 47.556593 11.747712 C 46.972442 12.358415 46.351119 12.900081 45.692622 13.383333 C 45.034125 13.866585 44.402181 14.153349 43.786168 14.254248 C 43.717132 14.27549 43.600302 14.286111 43.435677 14.286111 Z M 47.312312 19.824919 C 47.126446 19.824919 46.94058 19.766503 46.754714 19.644363 C 46.473259 19.453186 46.298014 19.230147 46.228978 18.969935 C 46.154632 18.715033 46.138701 18.433579 46.186495 18.125572 C 46.260841 17.801634 46.436086 17.419281 46.71754 16.983824 C 46.998995 16.548366 47.317622 16.12884 47.668112 15.735866 C 48.023913 15.332271 48.342541 15.034886 48.623995 14.849019 C 48.878897 14.636601 49.048831 14.413562 49.128488 14.174591 C 49.213456 13.940931 49.26125 13.659477 49.26125 13.330229 C 49.234697 12.793872 49.186903 12.262826 49.112557 11.747712 C 49.043521 11.232598 48.947933 10.701552 48.825792 10.154575 C 48.783309 9.920915 48.746135 9.692565 48.724894 9.474836 C 48.703652 9.251797 48.677099 9.018137 48.655858 8.784477 C 48.608063 7.982597 48.756756 7.292238 49.096626 6.718708 C 49.441805 6.145179 49.914436 5.635375 50.525139 5.183986 C 50.880939 4.971568 51.247361 4.865359 51.619093 4.865359 C 51.804959 4.865359 51.958962 4.88129 52.075792 4.902532 C 52.192623 4.923774 52.325384 5.008741 52.463456 5.152123 C 52.559044 5.242401 52.585596 5.34861 52.548423 5.470751 C 52.51125 5.58227 52.436904 5.667238 52.325384 5.709721 C 52.298832 5.736274 52.229796 5.746895 52.107655 5.746895 C 51.454469 5.746895 50.880939 5.980555 50.387067 6.453186 C 49.893194 6.920506 49.622361 7.488725 49.569256 8.147222 C 49.548015 8.237499 49.532083 8.333088 49.532083 8.433986 C 49.532083 8.524264 49.532083 8.614542 49.532083 8.71013 C 49.532083 8.805718 49.537394 8.901307 49.553325 9.002205 C 49.563946 9.092483 49.585188 9.182761 49.61174 9.278349 C 49.72857 9.915604 49.834779 10.542238 49.940988 11.168872 C 50.047198 11.790196 50.126854 12.41683 50.169338 13.048774 C 50.169338 13.070016 50.233064 13.176225 50.349894 13.367402 C 50.557002 13.250572 50.732247 13.144362 50.875629 13.048774 L 55.99491 9.448284 C 56.10643 9.40049 56.212639 9.331454 56.313538 9.241176 C 56.425057 9.17214 56.531267 9.140277 56.632165 9.140277 C 56.722443 9.140277 56.8021 9.17214 56.871136 9.241176 C 57.083554 9.432352 57.110107 9.607598 56.950793 9.766911 C 56.849894 9.910294 56.658718 10.090849 56.377263 10.303268 C 55.909943 10.627205 55.447933 10.951143 55.001855 11.275081 C 54.555776 11.588398 54.109698 11.912336 53.66893 12.236274 L 50.737557 14.323284 C 50.339273 14.604738 50.100302 14.981781 50.031266 15.449101 C 50.010024 15.942974 49.882573 16.527124 49.643603 17.206863 C 49.409943 17.891912 49.091315 18.497304 48.68772 19.023039 C 48.289436 19.559396 47.827426 19.824919 47.312312 19.824919 Z M 47.391969 18.831863 C 47.482246 18.831863 47.561903 18.8 47.630939 18.730964 C 47.965498 18.470752 48.246952 18.088399 48.475302 17.583905 C 48.708962 17.079412 48.841724 16.543056 48.873586 15.974837 C 48.045155 16.59085 47.455694 17.329003 47.105204 18.194608 C 47.083962 18.295507 47.083962 18.375164 47.105204 18.444199 C 47.105204 18.56103 47.142377 18.656618 47.211413 18.730964 C 47.253897 18.8 47.317622 18.831863 47.391969 18.831863 Z M 47.391969 18.831863 " stroke="#ffc800" stroke-width="2.645932" stroke-opacity="1" stroke-miterlimit="4"/></g><g fill="#020301" fill-opacity="1"><g transform="translate(155.906766, 29.65643)"><g><path d="M -1.328125 6.484375 C -1.484375 6.429688 -1.5625 6.289062 -1.5625 6.0625 C -1.5625 5.707031 -1.535156 5.347656 -1.484375 4.984375 C -1.066406 1.273438 -0.28125 -2.335938 0.875 -5.859375 C 1 -6.191406 1.144531 -6.59375 1.3125 -7.0625 C 1.488281 -7.539062 1.675781 -8.015625 1.875 -8.484375 C 2.070312 -8.953125 2.25 -9.332031 2.40625 -9.625 C 2.457031 -9.726562 2.546875 -9.78125 2.671875 -9.78125 C 2.722656 -9.78125 2.757812 -9.769531 2.78125 -9.75 C 2.9375 -9.695312 2.96875 -9.578125 2.875 -9.390625 C 2.875 -9.390625 2.859375 -9.335938 2.828125 -9.234375 C 2.171875 -7.660156 1.601562 -6.0625 1.125 -4.4375 C 0.65625 -2.820312 0.242188 -1.175781 -0.109375 0.5 C -0.117188 0.582031 -0.132812 0.675781 -0.15625 0.78125 C -0.175781 0.882812 -0.203125 0.988281 -0.234375 1.09375 C -0.285156 1.3125 -0.300781 1.523438 -0.28125 1.734375 C -0.164062 1.671875 -0.0820312 1.585938 -0.03125 1.484375 C 0.0078125 1.390625 0.046875 1.300781 0.078125 1.21875 C 0.160156 1.03125 0.253906 0.828125 0.359375 0.609375 C 0.460938 0.390625 0.578125 0.144531 0.703125 -0.125 C 0.941406 -0.644531 1.21875 -1.195312 1.53125 -1.78125 C 1.851562 -2.375 2.207031 -2.972656 2.59375 -3.578125 C 2.78125 -3.867188 2.972656 -4.15625 3.171875 -4.4375 C 3.367188 -4.726562 3.566406 -4.992188 3.765625 -5.234375 C 4.160156 -5.734375 4.566406 -6.160156 4.984375 -6.515625 C 5.398438 -6.878906 5.796875 -7.101562 6.171875 -7.1875 C 6.328125 -7.238281 6.457031 -7.265625 6.5625 -7.265625 C 6.957031 -7.265625 7.21875 -7.03125 7.34375 -6.5625 C 7.425781 -6.320312 7.457031 -6.082031 7.4375 -5.84375 C 7.425781 -5.613281 7.398438 -5.378906 7.359375 -5.140625 C 7.347656 -4.984375 7.398438 -4.90625 7.515625 -4.90625 C 7.566406 -4.90625 7.601562 -4.910156 7.625 -4.921875 C 7.65625 -4.941406 7.691406 -4.957031 7.734375 -4.96875 C 7.785156 -4.988281 7.828125 -5.007812 7.859375 -5.03125 C 7.890625 -5.050781 7.925781 -5.066406 7.96875 -5.078125 C 8.019531 -5.097656 8.0625 -5.117188 8.09375 -5.140625 L 9.90625 -5.84375 C 9.9375 -5.851562 9.976562 -5.863281 10.03125 -5.875 C 10.082031 -5.894531 10.144531 -5.914062 10.21875 -5.9375 C 10.269531 -5.957031 10.316406 -5.96875 10.359375 -5.96875 C 10.398438 -5.976562 10.441406 -5.984375 10.484375 -5.984375 C 10.691406 -6.023438 10.8125 -5.929688 10.84375 -5.703125 C 10.863281 -5.535156 10.796875 -5.425781 10.640625 -5.375 C 10.515625 -5.332031 10.398438 -5.289062 10.296875 -5.25 C 10.191406 -5.207031 10.078125 -5.171875 9.953125 -5.140625 C 9.835938 -5.097656 9.726562 -5.050781 9.625 -5 C 9.519531 -4.945312 9.40625 -4.90625 9.28125 -4.875 C 9.164062 -4.820312 9.039062 -4.769531 8.90625 -4.71875 C 8.78125 -4.664062 8.644531 -4.609375 8.5 -4.546875 C 8.382812 -4.472656 8.257812 -4.410156 8.125 -4.359375 C 8 -4.304688 7.867188 -4.253906 7.734375 -4.203125 C 7.335938 -4.023438 7.039062 -3.707031 6.84375 -3.25 C 6.707031 -2.863281 6.484375 -2.421875 6.171875 -1.921875 C 5.859375 -1.429688 5.503906 -0.984375 5.109375 -0.578125 C 4.710938 -0.171875 4.316406 0.109375 3.921875 0.265625 C 3.796875 0.328125 3.664062 0.359375 3.53125 0.359375 C 3.320312 0.359375 3.148438 0.28125 3.015625 0.125 C 2.890625 -0.03125 2.84375 -0.226562 2.875 -0.46875 C 2.925781 -0.882812 3.140625 -1.320312 3.515625 -1.78125 C 3.898438 -2.238281 4.332031 -2.664062 4.8125 -3.0625 C 5.300781 -3.457031 5.710938 -3.757812 6.046875 -3.96875 C 6.410156 -4.195312 6.609375 -4.515625 6.640625 -4.921875 C 6.660156 -5.046875 6.675781 -5.160156 6.6875 -5.265625 C 6.707031 -5.367188 6.726562 -5.484375 6.75 -5.609375 C 6.78125 -5.847656 6.769531 -6.070312 6.71875 -6.28125 C 6.664062 -6.445312 6.570312 -6.53125 6.4375 -6.53125 C 6.34375 -6.53125 6.289062 -6.523438 6.28125 -6.515625 C 5.894531 -6.335938 5.566406 -6.113281 5.296875 -5.84375 C 4.640625 -5.269531 4 -4.515625 3.375 -3.578125 C 2.75 -2.640625 2.171875 -1.625 1.640625 -0.53125 C 1.117188 0.550781 0.65625 1.625 0.25 2.6875 C -0.144531 3.75 -0.453125 4.695312 -0.671875 5.53125 C -0.691406 5.613281 -0.722656 5.707031 -0.765625 5.8125 C -0.804688 5.925781 -0.84375 6.046875 -0.875 6.171875 C -0.945312 6.378906 -1.097656 6.484375 -1.328125 6.484375 Z M 3.765625 -0.4375 C 3.773438 -0.4375 3.789062 -0.441406 3.8125 -0.453125 C 3.832031 -0.460938 3.859375 -0.476562 3.890625 -0.5 C 4.304688 -0.789062 4.679688 -1.113281 5.015625 -1.46875 C 5.359375 -1.832031 5.625 -2.269531 5.8125 -2.78125 C 5.894531 -2.8125 5.910156 -2.851562 5.859375 -2.90625 C 5.828125 -2.957031 5.796875 -2.941406 5.765625 -2.859375 C 5.296875 -2.609375 4.894531 -2.296875 4.5625 -1.921875 C 4.238281 -1.554688 3.925781 -1.15625 3.625 -0.71875 C 3.59375 -0.582031 3.601562 -0.507812 3.65625 -0.5 C 3.6875 -0.457031 3.722656 -0.4375 3.765625 -0.4375 Z M 3.765625 -0.4375 "/></g></g></g><g fill="#020301" fill-opacity="1"><g transform="translate(165.452912, 29.65643)"><g><path d="M 0.859375 1.375 C 0.617188 1.375 0.425781 1.242188 0.28125 0.984375 C 0.144531 0.722656 0.0625 0.488281 0.03125 0.28125 C 0.0078125 0.195312 0 0.109375 0 0.015625 C 0 -0.0664062 0 -0.140625 0 -0.203125 C 0 -0.296875 0 -0.367188 0 -0.421875 C 0 -0.484375 0 -0.535156 0 -0.578125 C 0.0195312 -1.234375 0.0664062 -1.84375 0.140625 -2.40625 C 0.222656 -2.976562 0.320312 -3.539062 0.4375 -4.09375 C 0.476562 -4.238281 0.507812 -4.382812 0.53125 -4.53125 C 0.5625 -4.6875 0.515625 -4.835938 0.390625 -4.984375 C 0.335938 -5.046875 0.320312 -5.113281 0.34375 -5.1875 C 0.375 -5.257812 0.414062 -5.320312 0.46875 -5.375 C 0.65625 -5.613281 0.800781 -5.863281 0.90625 -6.125 C 1.007812 -6.394531 1.101562 -6.679688 1.1875 -6.984375 C 1.382812 -7.566406 1.617188 -8.226562 1.890625 -8.96875 C 2.171875 -9.71875 2.484375 -10.472656 2.828125 -11.234375 C 3.171875 -11.992188 3.539062 -12.707031 3.9375 -13.375 C 4.34375 -14.039062 4.769531 -14.597656 5.21875 -15.046875 C 5.351562 -15.148438 5.472656 -15.203125 5.578125 -15.203125 C 5.597656 -15.203125 5.617188 -15.195312 5.640625 -15.1875 C 5.671875 -15.175781 5.710938 -15.160156 5.765625 -15.140625 C 5.878906 -15.085938 5.945312 -15.015625 5.96875 -14.921875 C 6 -14.828125 6.003906 -14.726562 5.984375 -14.625 C 5.867188 -14.101562 5.660156 -13.5 5.359375 -12.8125 C 5.054688 -12.132812 4.707031 -11.4375 4.3125 -10.71875 C 3.925781 -10.007812 3.535156 -9.328125 3.140625 -8.671875 C 2.742188 -8.023438 2.394531 -7.476562 2.09375 -7.03125 C 1.789062 -6.582031 1.546875 -6.003906 1.359375 -5.296875 C 1.179688 -4.585938 1.039062 -3.863281 0.9375 -3.125 C 0.832031 -2.382812 0.753906 -1.75 0.703125 -1.21875 C 0.671875 -0.957031 0.648438 -0.691406 0.640625 -0.421875 C 0.628906 -0.160156 0.664062 0.0976562 0.75 0.359375 C 0.78125 0.503906 0.859375 0.578125 0.984375 0.578125 C 1.109375 0.578125 1.265625 0.460938 1.453125 0.234375 C 1.640625 0.00390625 1.769531 -0.148438 1.84375 -0.234375 C 2.445312 -1.015625 3.066406 -1.835938 3.703125 -2.703125 C 4.347656 -3.578125 4.957031 -4.414062 5.53125 -5.21875 C 5.5625 -5.28125 5.628906 -5.382812 5.734375 -5.53125 C 5.835938 -5.6875 5.929688 -5.765625 6.015625 -5.765625 C 6.035156 -5.765625 6.097656 -5.742188 6.203125 -5.703125 C 6.316406 -5.648438 6.359375 -5.554688 6.328125 -5.421875 C 6.328125 -5.285156 6.289062 -5.179688 6.21875 -5.109375 C 6.164062 -5.003906 6.101562 -4.894531 6.03125 -4.78125 C 5.96875 -4.664062 5.90625 -4.5625 5.84375 -4.46875 C 5.5625 -4.113281 5.28125 -3.75 5 -3.375 C 4.726562 -3.007812 4.453125 -2.628906 4.171875 -2.234375 C 3.898438 -1.835938 3.617188 -1.445312 3.328125 -1.0625 C 3.046875 -0.6875 2.765625 -0.316406 2.484375 0.046875 C 2.398438 0.191406 2.257812 0.367188 2.0625 0.578125 C 1.863281 0.796875 1.65625 0.984375 1.4375 1.140625 C 1.21875 1.296875 1.023438 1.375 0.859375 1.375 Z M 2.953125 -9.3125 C 2.953125 -9.332031 2.960938 -9.34375 2.984375 -9.34375 C 2.984375 -9.34375 2.984375 -9.332031 2.984375 -9.3125 C 3.222656 -9.789062 3.46875 -10.273438 3.71875 -10.765625 C 3.96875 -11.265625 4.222656 -11.757812 4.484375 -12.25 L 5.1875 -13.640625 L 5.1875 -13.671875 C 5.164062 -13.679688 5.15625 -13.695312 5.15625 -13.71875 C 5.15625 -13.6875 5.164062 -13.660156 5.1875 -13.640625 C 5.082031 -13.671875 5.03125 -13.6875 5.03125 -13.6875 C 4.957031 -13.6875 4.867188 -13.617188 4.765625 -13.484375 C 4.421875 -12.898438 4.097656 -12.304688 3.796875 -11.703125 C 3.492188 -11.109375 3.222656 -10.492188 2.984375 -9.859375 C 2.898438 -9.628906 2.890625 -9.445312 2.953125 -9.3125 Z M 2.953125 -9.3125 "/></g></g></g><g fill="#020301" fill-opacity="1"><g transform="translate(170.485388, 29.65643)"><g><path d="M 5.5 -2 C 5.207031 -2 4.988281 -2.09375 4.84375 -2.28125 C 4.707031 -2.46875 4.625 -2.695312 4.59375 -2.96875 C 4.5625 -3.25 4.546875 -3.519531 4.546875 -3.78125 C 4.554688 -3.875 4.566406 -3.96875 4.578125 -4.0625 C 4.597656 -4.15625 4.617188 -4.265625 4.640625 -4.390625 C 4.660156 -4.503906 4.671875 -4.617188 4.671875 -4.734375 C 4.679688 -4.859375 4.695312 -4.984375 4.71875 -5.109375 C 4.71875 -5.140625 4.722656 -5.171875 4.734375 -5.203125 C 4.742188 -5.242188 4.753906 -5.28125 4.765625 -5.3125 C 4.785156 -5.382812 4.753906 -5.4375 4.671875 -5.46875 L 4.609375 -5.46875 C 4.546875 -5.46875 4.5 -5.441406 4.46875 -5.390625 C 4.445312 -5.378906 4.421875 -5.359375 4.390625 -5.328125 C 4.367188 -5.304688 4.347656 -5.285156 4.328125 -5.265625 C 4.265625 -5.191406 4.207031 -5.128906 4.15625 -5.078125 C 4.101562 -5.023438 4.050781 -4.96875 4 -4.90625 C 3.925781 -4.832031 3.859375 -4.769531 3.796875 -4.71875 C 3.734375 -4.664062 3.671875 -4.609375 3.609375 -4.546875 C 3.265625 -4.191406 2.878906 -3.832031 2.453125 -3.46875 C 2.023438 -3.113281 1.585938 -2.835938 1.140625 -2.640625 C 1.085938 -2.628906 1.039062 -2.617188 1 -2.609375 C 0.957031 -2.597656 0.914062 -2.59375 0.875 -2.59375 C 0.550781 -2.59375 0.363281 -2.765625 0.3125 -3.109375 C 0.257812 -3.242188 0.25 -3.441406 0.28125 -3.703125 C 0.351562 -4.210938 0.460938 -4.707031 0.609375 -5.1875 C 0.753906 -5.664062 0.957031 -6.132812 1.21875 -6.59375 L 1.421875 -6.875 C 1.523438 -6.976562 1.625 -7.03125 1.71875 -7.03125 C 1.800781 -7.03125 1.867188 -7.003906 1.921875 -6.953125 C 2.078125 -6.828125 2.09375 -6.679688 1.96875 -6.515625 C 1.9375 -6.441406 1.898438 -6.367188 1.859375 -6.296875 C 1.816406 -6.234375 1.769531 -6.15625 1.71875 -6.0625 C 1.519531 -5.707031 1.359375 -5.332031 1.234375 -4.9375 C 1.117188 -4.550781 1.023438 -4.148438 0.953125 -3.734375 C 0.953125 -3.710938 0.953125 -3.6875 0.953125 -3.65625 C 0.953125 -3.632812 0.953125 -3.609375 0.953125 -3.578125 C 0.953125 -3.503906 0.988281 -3.460938 1.0625 -3.453125 C 1.082031 -3.429688 1.117188 -3.421875 1.171875 -3.421875 C 1.222656 -3.421875 1.289062 -3.457031 1.375 -3.53125 C 1.445312 -3.582031 1.515625 -3.632812 1.578125 -3.6875 C 1.648438 -3.738281 1.722656 -3.789062 1.796875 -3.84375 C 1.859375 -3.875 1.921875 -3.914062 1.984375 -3.96875 C 2.046875 -4.019531 2.109375 -4.070312 2.171875 -4.125 C 2.628906 -4.5 3.054688 -4.894531 3.453125 -5.3125 C 3.847656 -5.726562 4.234375 -6.160156 4.609375 -6.609375 C 4.679688 -6.679688 4.742188 -6.742188 4.796875 -6.796875 C 4.847656 -6.847656 4.910156 -6.910156 4.984375 -6.984375 C 5.035156 -7.046875 5.085938 -7.101562 5.140625 -7.15625 C 5.203125 -7.207031 5.269531 -7.269531 5.34375 -7.34375 C 5.414062 -7.40625 5.484375 -7.4375 5.546875 -7.4375 C 5.566406 -7.4375 5.628906 -7.421875 5.734375 -7.390625 C 5.867188 -7.316406 5.925781 -7.207031 5.90625 -7.0625 C 5.894531 -6.988281 5.882812 -6.921875 5.875 -6.859375 C 5.863281 -6.796875 5.851562 -6.738281 5.84375 -6.6875 C 5.820312 -6.625 5.800781 -6.5625 5.78125 -6.5 C 5.769531 -6.4375 5.753906 -6.367188 5.734375 -6.296875 C 5.609375 -5.921875 5.503906 -5.535156 5.421875 -5.140625 C 5.335938 -4.753906 5.273438 -4.347656 5.234375 -3.921875 C 5.222656 -3.660156 5.222656 -3.398438 5.234375 -3.140625 C 5.273438 -2.828125 5.398438 -2.671875 5.609375 -2.671875 C 5.828125 -2.671875 6.09375 -2.769531 6.40625 -2.96875 C 6.71875 -3.164062 7.03125 -3.410156 7.34375 -3.703125 C 7.664062 -4.003906 7.960938 -4.289062 8.234375 -4.5625 C 8.515625 -4.84375 8.734375 -5.066406 8.890625 -5.234375 C 9.046875 -5.410156 9.210938 -5.578125 9.390625 -5.734375 C 9.421875 -5.765625 9.460938 -5.78125 9.515625 -5.78125 C 9.585938 -5.78125 9.648438 -5.753906 9.703125 -5.703125 C 9.835938 -5.566406 9.867188 -5.445312 9.796875 -5.34375 C 9.765625 -5.269531 9.734375 -5.210938 9.703125 -5.171875 C 9.679688 -5.128906 9.65625 -5.09375 9.625 -5.0625 C 9.332031 -4.71875 8.96875 -4.316406 8.53125 -3.859375 C 8.101562 -3.410156 7.644531 -3.007812 7.15625 -2.65625 C 6.675781 -2.300781 6.210938 -2.085938 5.765625 -2.015625 C 5.710938 -2.003906 5.625 -2 5.5 -2 Z M 5.5 -2 "/></g></g></g><g fill="#020301" fill-opacity="1"><g transform="translate(179.019858, 29.65643)"><g><path d="M -0.1875 2.078125 C -0.320312 2.078125 -0.457031 2.035156 -0.59375 1.953125 C -0.800781 1.804688 -0.929688 1.640625 -0.984375 1.453125 C -1.035156 1.265625 -1.046875 1.054688 -1.015625 0.828125 C -0.960938 0.585938 -0.832031 0.304688 -0.625 -0.015625 C -0.414062 -0.335938 -0.179688 -0.644531 0.078125 -0.9375 C 0.335938 -1.226562 0.570312 -1.441406 0.78125 -1.578125 C 0.96875 -1.734375 1.09375 -1.894531 1.15625 -2.0625 C 1.21875 -2.238281 1.25 -2.453125 1.25 -2.703125 C 1.226562 -3.097656 1.191406 -3.484375 1.140625 -3.859375 C 1.085938 -4.242188 1.019531 -4.632812 0.9375 -5.03125 C 0.894531 -5.207031 0.863281 -5.375 0.84375 -5.53125 C 0.832031 -5.695312 0.816406 -5.867188 0.796875 -6.046875 C 0.765625 -6.628906 0.875 -7.132812 1.125 -7.5625 C 1.375 -7.988281 1.722656 -8.363281 2.171875 -8.6875 C 2.429688 -8.84375 2.703125 -8.921875 2.984375 -8.921875 C 3.117188 -8.921875 3.226562 -8.910156 3.3125 -8.890625 C 3.40625 -8.878906 3.503906 -8.820312 3.609375 -8.71875 C 3.671875 -8.644531 3.6875 -8.566406 3.65625 -8.484375 C 3.632812 -8.398438 3.582031 -8.335938 3.5 -8.296875 C 3.476562 -8.285156 3.425781 -8.28125 3.34375 -8.28125 C 2.863281 -8.28125 2.441406 -8.101562 2.078125 -7.75 C 1.710938 -7.40625 1.515625 -6.992188 1.484375 -6.515625 C 1.460938 -6.441406 1.453125 -6.367188 1.453125 -6.296875 C 1.453125 -6.234375 1.453125 -6.164062 1.453125 -6.09375 C 1.453125 -6.019531 1.457031 -5.945312 1.46875 -5.875 C 1.476562 -5.8125 1.488281 -5.75 1.5 -5.6875 C 1.59375 -5.21875 1.675781 -4.753906 1.75 -4.296875 C 1.832031 -3.835938 1.890625 -3.375 1.921875 -2.90625 C 1.921875 -2.882812 1.960938 -2.804688 2.046875 -2.671875 C 2.203125 -2.753906 2.332031 -2.832031 2.4375 -2.90625 L 6.203125 -5.546875 C 6.285156 -5.585938 6.363281 -5.640625 6.4375 -5.703125 C 6.519531 -5.753906 6.597656 -5.78125 6.671875 -5.78125 C 6.734375 -5.78125 6.789062 -5.753906 6.84375 -5.703125 C 7 -5.566406 7.019531 -5.4375 6.90625 -5.3125 C 6.832031 -5.207031 6.691406 -5.078125 6.484375 -4.921875 C 6.140625 -4.679688 5.800781 -4.441406 5.46875 -4.203125 C 5.144531 -3.972656 4.816406 -3.738281 4.484375 -3.5 L 2.328125 -1.96875 C 2.035156 -1.757812 1.863281 -1.484375 1.8125 -1.140625 C 1.800781 -0.773438 1.707031 -0.34375 1.53125 0.15625 C 1.351562 0.65625 1.117188 1.097656 0.828125 1.484375 C 0.535156 1.878906 0.195312 2.078125 -0.1875 2.078125 Z M -0.125 1.34375 C -0.0625 1.34375 -0.00390625 1.316406 0.046875 1.265625 C 0.296875 1.078125 0.503906 0.796875 0.671875 0.421875 C 0.847656 0.0546875 0.941406 -0.332031 0.953125 -0.75 C 0.347656 -0.300781 -0.0820312 0.238281 -0.34375 0.875 C -0.351562 0.945312 -0.351562 1.007812 -0.34375 1.0625 C -0.34375 1.144531 -0.316406 1.210938 -0.265625 1.265625 C -0.222656 1.316406 -0.175781 1.34375 -0.125 1.34375 Z M -0.125 1.34375 "/></g></g></g></svg>