<?xml version="1.0" encoding="UTF-8" standalone="no"?>
<svg viewBox="0 0 597.65832 604.8221" height="604.82208" width="597.65833" xml:space="preserve" id="svg2" version="1.1" sodipodi:docname="logorocaplan-_1_.svg" inkscape:version="1.3.2 (091e20e, 2023-11-25, custom)"
  xmlns:inkscape="http://www.inkscape.org/namespaces/inkscape"
  xmlns:sodipodi="http://sodipodi.sourceforge.net/DTD/sodipodi-0.dtd"
  xmlns="http://www.w3.org/2000/svg"
  xmlns:svg="http://www.w3.org/2000/svg"
  xmlns:rdf="http://www.w3.org/1999/02/22-rdf-syntax-ns#"
  xmlns:cc="http://creativecommons.org/ns#"
  xmlns:dc="http://purl.org/dc/elements/1.1/">
  <sodipodi:namedview id="namedview1" pagecolor="#ffffff" bordercolor="#999999" borderopacity="1" inkscape:showpageshadow="2" inkscape:pageopacity="0" inkscape:pagecheckerboard="0" inkscape:deskcolor="#d1d1d1" inkscape:zoom="0.23117635" inkscape:cx="60.559827" inkscape:cy="218.44795" inkscape:window-width="1366" inkscape:window-height="715" inkscape:window-x="-8" inkscape:window-y="-8" inkscape:window-maximized="1" inkscape:current-layer="svg2" />
  <metadata id="metadata8">
    <rdf:RDF>
      <cc:Work rdf:about="">
        <dc:format>image/svg+xml</dc:format>
        <dc:type rdf:resource="http://purl.org/dc/dcmitype/StillImage" />
      </cc:Work>
    </rdf:RDF>
  </metadata>
  <defs id="defs6">
    <clipPath id="clipPath18" clipPathUnits="userSpaceOnUse">
      <path style="clip-rule:evenodd" id="path16" d="m 308.323,463.8172 c 9.1556,11.7326 20.7011,22.1539 35.5073,30.1754 14.8065,8.0217 32.874,13.6445 50.042,14.0938 17.168,0.4502 33.4364,-4.2729 44.7194,-10.3076 11.283,-6.035 17.5802,-13.3824 20.9914,-22.9034 3.4109,-9.5213 3.9362,-21.2159 1.3119,-33.3615 -2.6238,-12.1447 -8.3965,-24.7396 -19.9418,-34.7859 -11.5455,-10.0454 -28.8635,-17.5422 -43.2575,-21.4407 -14.3941,-3.8985 -25.8645,-4.1978 -38.272,-4.4229 -12.4072,-0.2251 -25.7516,-0.3753 -34.5603,-0.8626 -8.8086,-0.4872 -13.0824,-1.3118 -16.8678,-6.0349 -3.7862,-4.7228 -7.0846,-13.3444 -8.6587,-25.7142 -1.5749,-12.3699 -1.4256,-28.4882 -1.2376,-48.4671 0.1873,-19.9797 0.4124,-43.8199 0.1879,-60.6504 -0.2251,-16.8307 -0.9003,-26.6513 -1.3124,-32.1987 -0.4125,-5.5482 -0.5624,-6.8224 1.1616,-6.5974 1.7243,0.2246 5.3232,1.9492 11.5461,5.3975 6.222,3.4483 15.0681,8.6216 21.2156,15.9313 6.1472,7.3088 9.5961,16.7556 11.1702,28.4882 1.5744,11.7323 1.2748,25.7513 1.012,41.9448 -0.2622,16.1932 -0.4867,34.5608 -0.2245,45.881 0.2622,11.3204 1.0125,15.5939 3.0362,19.5667 2.0242,3.9736 5.3231,7.6476 12.5197,9.5967 7.1975,1.9494 18.2926,2.1736 33.8865,5.0224 15.5937,2.8488 35.6857,8.3223 53.6029,16.2312 17.9175,7.9092 33.6614,18.2548 44.3443,28.038 10.683,9.7835 16.3063,19.0049 18.3677,30.1003 2.0614,11.0951 0.5624,24.0653 -5.5732,36.1242 -6.1356,12.0594 -16.9078,23.2078 -31.5468,31.8415 -14.6384,8.6344 -33.1452,14.7538 -56.7071,16.0966 -23.5618,1.3425 -52.1801,-2.0912 -69.5726,-7.5975 -17.3917,-5.5065 -23.5574,-13.0855 -30.1448,-25.0259 -6.5877,-11.9401 -13.5967,-28.2407 -18.5723,-40.9643 -4.9757,-12.7239 -7.9175,-21.8699 -6.0055,-19.9213 1.9114,1.9491 8.6769,14.9944 17.8322,26.7267" />
    </clipPath>
    <linearGradient id="linearGradient28" spreadMethod="pad" gradientUnits="userSpaceOnUse" y2="339.42001" x2="289.32001" y1="391.79001" x1="510.06">
      <stop id="stop20" offset="0" style="stop-opacity:1;stop-color:#f57715" />
      <stop id="stop22" offset="0.23060349" style="stop-opacity:1;stop-color:#f57715" />
      <stop id="stop24" offset="0.49" style="stop-opacity:1;stop-color:#a8471e" />
      <stop id="stop26" offset="1" style="stop-opacity:1;stop-color:#f68b11" />
    </linearGradient>
    <clipPath id="clipPath38" clipPathUnits="userSpaceOnUse">
      <path style="clip-rule:evenodd" id="path36" d="m 292.7761,426.6544 c -1.787,10.8754 -5.2064,24.1557 -10.4752,35.71 -5.2687,11.5543 -12.3865,21.3832 -21.4908,29.7326 -9.1049,8.3503 -20.1969,15.2207 -29.8712,19.9194 -9.675,4.6987 -17.9329,7.2255 -26.3441,9.0742 -8.4118,1.8485 -16.9767,3.0192 -24.264,3.8971 -7.287,0.8785 -13.2951,1.4638 -12.7403,1.7102 0.5539,0.2466 7.6717,0.1539 17.1774,-0.7549 9.5057,-0.9085 19.1877,-3.0135 26.5666,-4.4768 7.3788,-1.4638 11.537,-3.6283 12.2601,-2.6736 0.7234,0.9553 0.2265,5.4096 0.8733,5.2866 0.6472,-0.1233 2.7893,-5.9459 5.5625,-8.4407 2.7731,-2.4948 5.8612,-3.3072 6.785,-2.9225 0.9241,0.3846 1.455,4.4305 0.3611,7.7584 -1.0939,3.3279 -3.496,7.5796 -3.3882,8.7503 0.1077,1.1707 1.5256,-0.7393 2.927,-3.805 1.4017,-3.0654 2.7893,-7.287 3.6825,-10.0292 0.8938,-2.742 0.9765,-6.0274 2.5333,-7.2899 1.5568,-1.2631 4.5834,-2.5262 8.0496,-4.7755 3.4662,-2.2493 7.6884,-6.4948 9.0748,-6.2952 1.3861,0.1993 -0.0624,6.8683 -1.6948,11.5977 -1.6331,4.7296 -3.4515,10.5528 -4.576,15.0976 -1.1248,4.5448 -1.5557,7.8103 -4.3441,13.3869 -2.7887,5.5771 -7.9342,13.4648 -14.0805,19.1953 -6.1472,5.7308 -13.2959,9.3056 -21.5071,12.0629 -8.2111,2.7575 -17.4852,4.6992 -25.9733,5.8385 -8.4889,1.1401 -16.1914,1.4794 -20.1662,1.8794 -3.9747,0.4008 -4.2211,0.8631 -1.6948,1.2016 7.0225,0.9413 26.5269,-1.8051 33.3876,-3.2726 8.8574,-1.8947 19.2934,-4.6738 28.1979,-10.0508 8.9042,-5.3771 15.6469,-12.0878 19.8057,-18.9267 4.1587,-6.8388 6.5582,-13.5572 8.5297,-20.3817 1.9718,-6.8241 3.2649,-13.6938 5.6713,-18.2335 2.4057,-4.5403 3.5895,-9.1511 5.0071,-11.5543 1.417,-2.4032 2.3102,-3.4195 2.2949,-2.5263 -0.0153,0.8938 -0.9394,3.6973 -1.3864,6.3159 -0.4468,2.6192 -0.4161,5.0539 0.6919,9.7929 1.1075,4.7395 3.2913,11.785 4.2486,18.7585 0.9573,6.9738 0.688,13.8762 -4.273,22.5309 -4.9614,8.655 -14.614,19.0627 -23.7274,26.0459 -9.1131,6.9834 -17.687,10.542 -27.7166,12.7258 -10.0303,2.1838 -21.5166,2.9931 -34.4315,-0.4583 -12.915,-3.4509 -27.2583,-11.1626 -40.5777,-17.1752 -13.3194,-6.0122 -25.6144,-10.3263 -34.8625,-12.7533 -9.2486,-2.4262 -15.4494,-2.9653 -20.8148,-2.4531 -5.3657,0.5122 -9.8957,2.0761 -11.7558,2.4531 -1.8601,0.3779 -1.0514,-0.4309 1.9417,-3.2624 2.9931,-2.8307 8.1695,-7.6839 15.6379,-17.6063 7.4687,-9.9218 17.229,-24.9131 26.3152,-37.3425 9.0864,-12.4296 17.4982,-22.2981 25.6413,-28.8498 8.1425,-6.5518 16.0152,-9.7872 25.5328,-11.971 9.5179,-2.1839 20.6804,-3.3163 31.4923,-1.4562 10.8117,1.8607 21.2735,6.7139 28.0412,11.7286 6.7672,5.0154 9.8405,10.1917 12.7797,12.7803 2.9384,2.5886 5.743,2.5886 10.1109,0.6738 4.3679,-1.9139 10.3003,-5.743 13.832,-8.7361 3.5322,-2.9925 6.2195,-8.0022 5.68,-8.9453 -0.5391,-0.9433 -4.3055,2.1782 -7.0554,1.9358 -2.7502,-0.2424 -6.0395,-0.9978 -10.0834,-3.1816 -4.0448,-2.1841 -8.8441,-5.7971 -12.9419,-8.4124 -4.0986,-2.6155 -7.4962,-4.2332 -8.4393,-5.0425 -0.9439,-0.8085 0.5655,-0.8085 4.5023,-1.8601 3.9365,-1.0514 10.2994,-3.1539 15.5574,-4.5292 5.2577,-1.3748 9.4093,-2.0225 13.1842,-1.5908 3.7746,0.4314 8.2097,3.107 10.9052,3.4033 2.6963,0.297 3.9401,-2.0716 5.7305,-4.455 1.7901,-2.3833 4.233,-7.0908 5.5814,-10.7042 1.3479,-3.6124 1.887,-6.417 1.9678,-7.9537 0.0808,-1.5369 -0.2962,-1.8062 -1.4284,-1.6716 -1.1324,0.1347 -3.02,0.6738 -4.7724,2.0755 -1.7524,1.4023 -3.3701,3.6675 -5.2033,5.2583 -1.834,1.5908 -3.8831,2.507 -5.8784,2.9656 -1.9953,0.4584 -3.9362,0.4584 -5.5001,-0.3509 -1.5639,-0.8085 -2.7502,-2.4262 -3.2624,-3.9631 -0.5125,-1.537 -0.3501,-2.9926 -1.3748,-4.0709 -1.0247,-1.0786 -3.236,-1.7798 -5.5817,-2.2385 -2.346,-0.4578 -4.8263,-0.6738 -5.527,-0.9975 -0.7016,-0.3232 0.377,-0.7543 2.1569,-1.7787 1.7793,-1.0248 4.2596,-2.6425 7.9804,-3.4246 3.7207,-0.7818 8.6825,-0.7279 12.3494,-0.0808 3.6663,0.6469 6.0392,1.8876 7.5761,2.7499 1.5364,0.8632 2.238,1.3479 3.2624,1.3748 1.0248,0.027 2.3732,-0.4053 3.6134,-1.7793 5.3909,-5.9771 6.8184,-25.5336 18.606,-39.2686 7.0294,-8.1904 17.4226,-13.7619 29.5231,-17.8359 12.1006,-4.0742 43.651,-8.2054 54.4167,-12.8721 34.4424,-14.929 45.1437,-33.2997 71.087,-71.5697 1.4428,-1.8635 10.7971,-19.3187 18.7974,-32.5446 1.9389,-3.2045 14.1902,-22.7199 25.7706,-34.3831 4.6661,-4.6993 8.9878,-10.0905 14.4263,-14.1007 1.7133,-1.2631 -4.3191,7.5688 -8.4464,14.3822 -4.9989,8.2508 -10.1046,19.8011 -12.9194,26.0424 -1.7402,3.8583 -3.642,8.2279 -5.438,13.0785 -4.9153,13.2778 -13.2163,35.8767 -27.2693,56.2839 -15.5937,22.6432 -37.6058,42.8771 -55.6036,50.8326 -23.6029,10.4326 -40.6406,11.1002 -65.8774,15.6291 -21.689,3.8925 -33.0797,7.6306 -44.418,31.1709 -4.0632,8.4347 -6.9741,15.6393 -8.5105,24.9916 z m -18.0335,-3.7349 c -2.1217,0.3674 -5.8169,-0.0284 -8.0759,-1.1066 -2.0851,-0.9959 -3.3848,-1.7198 -2.55,-1.8647 0.8342,-0.1443 2.9387,0.9125 5.2585,1.4746 0.5502,0.1335 1.7768,0.4932 4.2512,0.6766 2.0452,0.1514 4.3727,-0.9714 4.3486,-0.5873 -0.007,0.1122 -1.0979,1.038 -3.2324,1.4074 z m 2.1223,30.2233 c -5.7052,4.5581 -22.0492,2.3006 -23.8864,-1.8936 -0.127,-0.2897 4.123,1.9307 7.6907,2.7182 3.5674,0.7872 6.3873,1.3444 10.7796,0.4853 4.3923,-0.8592 4.6363,-2.2524 5.7784,-2.543 1.1427,-0.2906 0.817,0.2897 -0.3623,1.2331 z M 199.931,554.5942 c -4.3039,2.2351 -11.3171,5.0448 -19.1251,7.3134 -7.8078,2.2685 -15.1685,3.3488 -23.2092,2.982 -8.0405,-0.3674 -16.1164,-2.1813 -22.7226,-4.6497 -6.6061,-2.4687 -13.6349,-6.4031 -19.5409,-8.7054 -5.9054,-2.3026 -11.7153,-3.0266 -15.8683,-3.0464 -4.1531,-0.0193 -5.1384,-0.4669 -3.3032,-0.7677 1.8348,-0.2999 6.7062,-1.1015 13.4464,0.3668 6.7402,1.4684 14.3768,6.0702 21.5844,8.9728 7.2077,2.9027 14.0465,4.9147 20.8534,5.6152 6.8071,0.7007 15.6869,0.089 22.8265,-1.1787 7.1396,-1.2676 12.2635,-3.3514 17.5694,-5.1865 5.3059,-1.8352 9.6588,-4.2851 11.2266,-4.6525 1.5682,-0.3668 0.5667,0.7013 -3.7374,2.9367 z m 17.4081,-54.6565 c -2.9923,-2.2969 -8.8926,-5.9145 -16.5484,-9.0287 -7.6552,-3.1144 -17.6442,-5.3597 -27.9445,-6.1253 -10.3,-0.7657 -21.28,-0.0514 -29.1793,1.3053 -7.8996,1.357 -12.1416,2.9914 -15.0301,4.8699 -2.8879,1.8788 -3.689,3.4804 -2.645,3.4804 1.0437,0 2.8321,-2.3865 6.2952,-3.7964 3.4625,-1.4094 7.9174,-2.888 15.2949,-3.6542 7.3777,-0.7656 17.99,-1.1837 27.0725,-0.4527 9.0825,0.7311 18.6273,2.9245 25.0988,5.4471 6.4715,2.5223 12.0237,5.9513 14.7699,8.3372 2.7463,2.3854 4.9391,2.3661 5.6002,2.3661 0.661,0 0.2083,-0.4521 -2.7842,-2.7487 z m 33.6781,-8.8934 c -2.6617,2.1254 -7.4307,5.72 -15.5015,10.0057 -8.0705,4.2857 -19.4414,9.2633 -29.7238,12.8406 -10.2827,3.5771 -19.4769,5.7547 -25.4733,6.9126 -5.9964,1.158 -8.7965,1.296 -9.4184,1.2093 -0.6219,-0.0859 0.9329,-0.3974 4.6831,-1.2271 3.75,-0.8292 9.6951,-2.1771 13.2376,-3.1964 3.5427,-1.0196 4.6834,-1.7113 4.0441,-2.4891 -0.6395,-0.7778 -1.8453,-1.8556 -5.6817,-3.0135 -3.8362,-1.1582 -9.2333,-2.7522 -14.5378,-3.9966 -5.3045,-1.2441 -13.3092,-1.9601 -19.3056,-2.1673 -5.9964,-0.2073 -11.058,0.4507 -17.7976,1.8504 -6.7397,1.3998 -13.5837,3.5773 -17.6962,5.029 -4.1133,1.4516 -5.4958,2.1775 -3.5427,1.1919 1.9525,-0.9847 7.2411,-3.6805 13.3067,-5.7719 15.6991,-5.4119 24.1166,-5.1412 40.1598,-3.1413 8.6964,1.0842 18.2296,4.0671 26.1323,7.9285 2.3327,1.1406 3.1964,1.3481 6.6359,0.3455 3.4388,-1.0023 9.453,-3.2145 14.914,-5.3226 5.4603,-2.1081 10.3688,-4.1134 14.6372,-6.135 4.2684,-2.0217 7.8976,-4.0618 10.6971,-5.5823 2.7995,-1.5208 5.5809,-3.1635 4.9417,-3.509 -0.6401,-0.3458 -3.2919,0.0935 -7.2488,-0.286 -3.9569,-0.3796 -11.9801,-3.4722 -17.5615,-6.4786 -5.5817,-3.0067 -10.3272,-6.6518 -17.7752,-10.1251 -7.448,-3.4733 -15.6515,-4.2449 -20.9574,-5.195 -5.3059,-0.9502 -7.5175,-0.8464 -7.4653,-1.0888 0.0513,-0.2415 2.3672,-0.8289 6.8261,-0.7084 4.4581,0.1211 11.06,0.9508 18.8362,3.9062 7.7763,2.9551 17.6123,10.0442 24.3179,13.5688 12.0274,6.3221 16.8012,6.0035 28.8402,2.0878 0.6911,-0.2246 0.1378,0.4322 -2.5231,2.5577" />
    </clipPath>
    <linearGradient id="linearGradient50" spreadMethod="pad" gradientUnits="userSpaceOnUse" y2="381.41" x2="64.370003" y1="387.26001" x1="512.57001">
      <stop id="stop40" offset="0" style="stop-opacity:1;stop-color:#3db73d" />
      <stop id="stop42" offset="0.3" style="stop-opacity:1;stop-color:#1d2517" />
      <stop id="stop44" offset="0.71" style="stop-opacity:1;stop-color:#2b8238" />
      <stop id="stop46" offset="0.87" style="stop-opacity:1;stop-color:#1b2418" />
      <stop id="stop48" offset="1" style="stop-opacity:1;stop-color:#141511" />
    </linearGradient>
    <clipPath id="clipPath60" clipPathUnits="userSpaceOnUse">
      <path style="clip-rule:evenodd" id="path58" d="m 291.0929,450.726 c 1.6004,4.7673 4.1876,12.768 5.9394,19.8328 1.7513,7.0654 2.6668,13.195 4.3192,19.4443 1.6517,6.249 4.0393,12.6178 6.3088,17.7128 2.2685,5.095 4.4177,8.9158 4.9351,13.2143 0.5176,4.2993 -0.597,9.0754 -4.0394,13.4932 -3.4432,4.4186 -9.2154,8.4784 -12.1207,13.6729 -2.9058,5.1942 -2.9454,11.5234 -3.1243,14.9264 -0.1797,3.4033 -0.4978,3.8809 -2.0302,1.3932 -1.5324,-2.4879 -4.2792,-7.9407 -6.8068,-13.8319 -2.5277,-5.8907 -4.8359,-12.2199 -5.5522,-19.1659 -0.7166,-6.9452 0.159,-14.5074 2.4284,-21.712 2.2683,-7.2045 5.9304,-14.051 8.1193,-19.1262 2.1892,-5.0743 2.9058,-8.3783 2.9457,-13.5527 0.0397,-5.1743 -0.5978,-12.2199 -1.4017,-18.2208 -0.8047,-6.001 -1.7773,-10.9579 -1.9562,-12.6695 -0.1788,-1.7112 0.4346,-0.1774 2.0356,4.5891 z m 3.433,42.91 c 0.3022,2.963 0.7367,7.5243 0.5661,11.9576 -0.1704,4.4331 -0.9456,8.7381 -1.5463,13.4266 -0.6009,4.6891 -1.0273,9.762 -1.3686,10.5078 -0.341,0.7463 -0.5961,-2.8347 -0.6602,-7.7154 -0.0643,-4.8809 0.0641,-11.0619 0.4051,-15.794 0.3405,-4.7314 0.8952,-8.0136 1.2575,-10.7847 0.3622,-2.7706 0.532,-5.0296 0.7027,-5.4771 0.1706,-0.4476 0.341,0.9161 0.6437,3.8792" />
    </clipPath>
    <linearGradient id="linearGradient66" spreadMethod="pad" gradientUnits="userSpaceOnUse" y2="499.04001" x2="274.70001" y1="507.57999" x1="315.32999">
      <stop id="stop62" offset="0" style="stop-opacity:1;stop-color:#3db73d" />
      <stop id="stop64" offset="1" style="stop-opacity:1;stop-color:#141511" />
    </linearGradient>
    <clipPath id="clipPath76" clipPathUnits="userSpaceOnUse">
      <path style="clip-rule:evenodd" id="path74" d="m 317.4211,513.9317 c 2.4185,2.0158 6.8714,5.5412 11.9934,8.6213 5.1213,3.081 10.9111,5.7155 18.1476,7.441 7.2372,1.7263 15.9214,2.5432 22.9354,3.7307 7.0147,1.1874 12.3585,2.7462 18.4031,7.8148 6.0452,5.0692 12.7897,13.6482 16.7434,21.7134 3.9535,8.0654 5.1154,15.6175 4.2279,23.2977 -0.8872,7.6807 -3.8245,15.491 -6.245,21.5742 -2.4199,6.0837 -4.3243,10.4397 -5.2277,14.8447 -0.9036,4.4056 -0.8067,8.8588 0.0159,12.3605 0.8235,3.5013 2.3718,6.0508 3.9371,8.1161 1.565,2.0654 3.147,3.6471 2.1945,4.1313 -0.9521,0.4838 -4.4367,-0.1296 -8.6811,-1.7757 -4.2431,-1.6452 -9.2457,-4.3242 -13.5379,-7.7128 -4.2923,-3.3879 -7.8744,-7.4871 -12.5538,-10.8598 -4.6795,-3.3721 -10.4568,-6.0182 -16.75,-8.6164 -6.2926,-2.5974 -13.1014,-5.1475 -18.8461,-10.4077 -5.7444,-5.2606 -10.4238,-13.231 -13.1667,-20.1861 -2.743,-6.9545 -3.5503,-12.8925 -2.6302,-19.4924 0.9195,-6.5991 3.5657,-13.8606 5.4538,-19.9276 1.8879,-6.067 3.017,-10.94 2.6785,-15.3456 -0.3393,-4.4051 -2.1461,-8.3418 -4.4371,-11.9889 -2.2918,-3.6465 -5.0675,-7.0033 -6.2626,-8.4285 -1.1959,-1.4256 -0.8118,-0.9196 1.6076,1.0958 z m 52.6328,39.0722 c 3.3818,1.6101 7.6777,4.5961 12.8707,8.4606 5.1937,3.8645 9.8314,8.0938 13.0516,13.1854 3.2199,5.0924 5.9629,10.722 6.3649,14.184 0.4022,3.4616 -0.0808,5.2744 -0.6443,4.6099 -0.5635,-0.6641 -0.3166,-3.8052 -1.605,-7.6898 -1.2881,-3.8849 -4.8152,-9.8742 -8.3579,-14.3631 -3.5425,-4.4884 -9.1548,-8.2908 -13.4425,-11.3505 -4.2877,-3.0597 -6.078,-4.2044 -8.5742,-5.7541 -2.4959,-1.5497 -4.5352,-2.6917 -4.555,-3.0739 -0.0204,-0.3821 1.51,0.1815 4.8917,1.7915 z m -43.6535,-30.0937 c 2.7748,2.13 7.9384,6.1965 13.6502,10.779 5.7124,4.5828 11.9736,9.682 17.1371,15.4746 5.1636,5.7926 8.1386,11.5782 10.9466,17.4028 2.8077,5.8252 5.1333,12.5705 7.0208,20.0409 1.8879,7.4699 4.4295,16.3698 5.8332,22.2271 1.4034,5.8572 1.9842,7.7935 1.3068,6.6478 -0.6778,-1.1452 -2.6136,-5.3731 -4.2597,-11.1983 -1.6458,-5.8246 -2.6711,-12.2686 -5.4303,-20.2881 -2.759,-8.0201 -6.2393,-17.3038 -9.612,-22.9034 -3.3727,-5.5996 -8.3696,-11.0625 -9.612,-11.7403 -1.2427,-0.6783 -1.146,0.5477 -0.5491,3.0977 0.597,2.5501 1.7371,8.4297 2.0597,14.7711 0.3226,6.3414 -0.7387,15.7618 -0.254,22.0725 0.4847,6.3105 2.0013,10.2629 3.2598,14.135 1.2586,3.8721 3.2919,7.7136 5.3411,10.876 2.0494,3.1629 4.1148,5.6474 3.6465,5.1956 -0.468,-0.4516 -3.4688,-3.8401 -6.1478,-8.0195 -2.6782,-4.1794 -5.0346,-9.1491 -6.2124,-14.9584 -1.1778,-5.8085 -1.1778,-12.4563 -1.2586,-18.9916 -0.0808,-6.535 -0.2418,-12.9572 -1.1458,-18.4598 -0.9036,-5.502 -2.5489,-10.0848 -4.7916,-13.9093 -2.2431,-3.8242 -5.0834,-6.8896 -7.6329,-9.375 -2.5495,-2.4846 -4.8081,-4.3889 -5.034,-3.5663 -0.2257,0.8226 0.8778,4.3736 2.4429,8.7137 1.5652,4.3404 2.6073,8.3458 2.6073,14.9783 0,6.6319 -0.7606,15.2804 -1.3255,21.2666 -0.565,5.9868 0.0507,10.4372 -0.2398,10.9375 -0.2906,0.5 -1.0644,-2.3411 -1.0803,-6.9072 -0.0162,-4.5657 1.101,-11.3746 1.1976,-18.0224 0.097,-6.6481 -0.2653,-12.3392 -1.5395,-18.051 -1.2739,-5.7124 -3.8375,-10.9309 -5.6772,-14.2061 -1.8394,-3.2751 -3.5181,-5.4054 -4.8569,-6.9704 -1.3394,-1.5653 -2.3403,-2.5662 -2.647,-2.9696 -0.3064,-0.4031 0.0808,-0.2094 2.8568,1.9205" />
    </clipPath>
    <linearGradient id="linearGradient86" spreadMethod="pad" gradientUnits="userSpaceOnUse" y2="645.01001" x2="361.98999" y1="509.32999" x1="359.51999">
      <stop id="stop78" offset="0" style="stop-opacity:1;stop-color:#3db73d" />
      <stop id="stop80" offset="0.48" style="stop-opacity:1;stop-color:#2b8238" />
      <stop id="stop82" offset="0.78" style="stop-opacity:1;stop-color:#1b2418" />
      <stop id="stop84" offset="1" style="stop-opacity:1;stop-color:#141511" />
    </linearGradient>
    <clipPath id="clipPath96" clipPathUnits="userSpaceOnUse">
      <path style="clip-rule:evenodd" id="path94" d="m -863.6681,-127.4063 h 661.5113 v 951.2147 h -661.5113 z" />
    </clipPath>
    <clipPath id="clipPath104" clipPathUnits="userSpaceOnUse">
      <path style="clip-rule:evenodd" id="path102" d="m -863.6681,-127.4063 v 951.2147 h 661.5114 v -951.2147 z" />
    </clipPath>
  </defs>
  <g transform="matrix(1.3333333,0,0,-1.3333333,-97.751759,863.65077)" id="g10">
    <g id="g12">
      <g clip-path="url(#clipPath18)" id="g14">
        <path id="path30" style="fill:url(#linearGradient28);fill-rule:evenodd;stroke:none" d="m 308.323,463.8172 c 9.1556,11.7326 20.7011,22.1539 35.5073,30.1754 14.8065,8.0217 32.874,13.6445 50.042,14.0938 17.168,0.4502 33.4364,-4.2729 44.7194,-10.3076 11.283,-6.035 17.5802,-13.3824 20.9914,-22.9034 3.4109,-9.5213 3.9362,-21.2159 1.3119,-33.3615 -2.6238,-12.1447 -8.3965,-24.7396 -19.9418,-34.7859 -11.5455,-10.0454 -28.8635,-17.5422 -43.2575,-21.4407 -14.3941,-3.8985 -25.8645,-4.1978 -38.272,-4.4229 -12.4072,-0.2251 -25.7516,-0.3753 -34.5603,-0.8626 -8.8086,-0.4872 -13.0824,-1.3118 -16.8678,-6.0349 -3.7862,-4.7228 -7.0846,-13.3444 -8.6587,-25.7142 -1.5749,-12.3699 -1.4256,-28.4882 -1.2376,-48.4671 0.1873,-19.9797 0.4124,-43.8199 0.1879,-60.6504 -0.2251,-16.8307 -0.9003,-26.6513 -1.3124,-32.1987 -0.4125,-5.5482 -0.5624,-6.8224 1.1616,-6.5974 1.7243,0.2246 5.3232,1.9492 11.5461,5.3975 6.222,3.4483 15.0681,8.6216 21.2156,15.9313 6.1472,7.3088 9.5961,16.7556 11.1702,28.4882 1.5744,11.7323 1.2748,25.7513 1.012,41.9448 -0.2622,16.1932 -0.4867,34.5608 -0.2245,45.881 0.2622,11.3204 1.0125,15.5939 3.0362,19.5667 2.0242,3.9736 5.3231,7.6476 12.5197,9.5967 7.1975,1.9494 18.2926,2.1736 33.8865,5.0224 15.5937,2.8488 35.6857,8.3223 53.6029,16.2312 17.9175,7.9092 33.6614,18.2548 44.3443,28.038 10.683,9.7835 16.3063,19.0049 18.3677,30.1003 2.0614,11.0951 0.5624,24.0653 -5.5732,36.1242 -6.1356,12.0594 -16.9078,23.2078 -31.5468,31.8415 -14.6384,8.6344 -33.1452,14.7538 -56.7071,16.0966 -23.5618,1.3425 -52.1801,-2.0912 -69.5726,-7.5975 -17.3917,-5.5065 -23.5574,-13.0855 -30.1448,-25.0259 -6.5877,-11.9401 -13.5967,-28.2407 -18.5723,-40.9643 -4.9757,-12.7239 -7.9175,-21.8699 -6.0055,-19.9213 1.9114,1.9491 8.6769,14.9944 17.8322,26.7267" />
      </g>
    </g>
    <g id="g32">
      <g clip-path="url(#clipPath38)" id="g34">
        <path id="path52" style="fill:url(#linearGradient50);fill-rule:evenodd;stroke:none" d="m 292.7761,426.6544 c -1.787,10.8754 -5.2064,24.1557 -10.4752,35.71 -5.2687,11.5543 -12.3865,21.3832 -21.4908,29.7326 -9.1049,8.3503 -20.1969,15.2207 -29.8712,19.9194 -9.675,4.6987 -17.9329,7.2255 -26.3441,9.0742 -8.4118,1.8485 -16.9767,3.0192 -24.264,3.8971 -7.287,0.8785 -13.2951,1.4638 -12.7403,1.7102 0.5539,0.2466 7.6717,0.1539 17.1774,-0.7549 9.5057,-0.9085 19.1877,-3.0135 26.5666,-4.4768 7.3788,-1.4638 11.537,-3.6283 12.2601,-2.6736 0.7234,0.9553 0.2265,5.4096 0.8733,5.2866 0.6472,-0.1233 2.7893,-5.9459 5.5625,-8.4407 2.7731,-2.4948 5.8612,-3.3072 6.785,-2.9225 0.9241,0.3846 1.455,4.4305 0.3611,7.7584 -1.0939,3.3279 -3.496,7.5796 -3.3882,8.7503 0.1077,1.1707 1.5256,-0.7393 2.927,-3.805 1.4017,-3.0654 2.7893,-7.287 3.6825,-10.0292 0.8938,-2.742 0.9765,-6.0274 2.5333,-7.2899 1.5568,-1.2631 4.5834,-2.5262 8.0496,-4.7755 3.4662,-2.2493 7.6884,-6.4948 9.0748,-6.2952 1.3861,0.1993 -0.0624,6.8683 -1.6948,11.5977 -1.6331,4.7296 -3.4515,10.5528 -4.576,15.0976 -1.1248,4.5448 -1.5557,7.8103 -4.3441,13.3869 -2.7887,5.5771 -7.9342,13.4648 -14.0805,19.1953 -6.1472,5.7308 -13.2959,9.3056 -21.5071,12.0629 -8.2111,2.7575 -17.4852,4.6992 -25.9733,5.8385 -8.4889,1.1401 -16.1914,1.4794 -20.1662,1.8794 -3.9747,0.4008 -4.2211,0.8631 -1.6948,1.2016 7.0225,0.9413 26.5269,-1.8051 33.3876,-3.2726 8.8574,-1.8947 19.2934,-4.6738 28.1979,-10.0508 8.9042,-5.3771 15.6469,-12.0878 19.8057,-18.9267 4.1587,-6.8388 6.5582,-13.5572 8.5297,-20.3817 1.9718,-6.8241 3.2649,-13.6938 5.6713,-18.2335 2.4057,-4.5403 3.5895,-9.1511 5.0071,-11.5543 1.417,-2.4032 2.3102,-3.4195 2.2949,-2.5263 -0.0153,0.8938 -0.9394,3.6973 -1.3864,6.3159 -0.4468,2.6192 -0.4161,5.0539 0.6919,9.7929 1.1075,4.7395 3.2913,11.785 4.2486,18.7585 0.9573,6.9738 0.688,13.8762 -4.273,22.5309 -4.9614,8.655 -14.614,19.0627 -23.7274,26.0459 -9.1131,6.9834 -17.687,10.542 -27.7166,12.7258 -10.0303,2.1838 -21.5166,2.9931 -34.4315,-0.4583 -12.915,-3.4509 -27.2583,-11.1626 -40.5777,-17.1752 -13.3194,-6.0122 -25.6144,-10.3263 -34.8625,-12.7533 -9.2486,-2.4262 -15.4494,-2.9653 -20.8148,-2.4531 -5.3657,0.5122 -9.8957,2.0761 -11.7558,2.4531 -1.8601,0.3779 -1.0514,-0.4309 1.9417,-3.2624 2.9931,-2.8307 8.1695,-7.6839 15.6379,-17.6063 7.4687,-9.9218 17.229,-24.9131 26.3152,-37.3425 9.0864,-12.4296 17.4982,-22.2981 25.6413,-28.8498 8.1425,-6.5518 16.0152,-9.7872 25.5328,-11.971 9.5179,-2.1839 20.6804,-3.3163 31.4923,-1.4562 10.8117,1.8607 21.2735,6.7139 28.0412,11.7286 6.7672,5.0154 9.8405,10.1917 12.7797,12.7803 2.9384,2.5886 5.743,2.5886 10.1109,0.6738 4.3679,-1.9139 10.3003,-5.743 13.832,-8.7361 3.5322,-2.9925 6.2195,-8.0022 5.68,-8.9453 -0.5391,-0.9433 -4.3055,2.1782 -7.0554,1.9358 -2.7502,-0.2424 -6.0395,-0.9978 -10.0834,-3.1816 -4.0448,-2.1841 -8.8441,-5.7971 -12.9419,-8.4124 -4.0986,-2.6155 -7.4962,-4.2332 -8.4393,-5.0425 -0.9439,-0.8085 0.5655,-0.8085 4.5023,-1.8601 3.9365,-1.0514 10.2994,-3.1539 15.5574,-4.5292 5.2577,-1.3748 9.4093,-2.0225 13.1842,-1.5908 3.7746,0.4314 8.2097,3.107 10.9052,3.4033 2.6963,0.297 3.9401,-2.0716 5.7305,-4.455 1.7901,-2.3833 4.233,-7.0908 5.5814,-10.7042 1.3479,-3.6124 1.887,-6.417 1.9678,-7.9537 0.0808,-1.5369 -0.2962,-1.8062 -1.4284,-1.6716 -1.1324,0.1347 -3.02,0.6738 -4.7724,2.0755 -1.7524,1.4023 -3.3701,3.6675 -5.2033,5.2583 -1.834,1.5908 -3.8831,2.507 -5.8784,2.9656 -1.9953,0.4584 -3.9362,0.4584 -5.5001,-0.3509 -1.5639,-0.8085 -2.7502,-2.4262 -3.2624,-3.9631 -0.5125,-1.537 -0.3501,-2.9926 -1.3748,-4.0709 -1.0247,-1.0786 -3.236,-1.7798 -5.5817,-2.2385 -2.346,-0.4578 -4.8263,-0.6738 -5.527,-0.9975 -0.7016,-0.3232 0.377,-0.7543 2.1569,-1.7787 1.7793,-1.0248 4.2596,-2.6425 7.9804,-3.4246 3.7207,-0.7818 8.6825,-0.7279 12.3494,-0.0808 3.6663,0.6469 6.0392,1.8876 7.5761,2.7499 1.5364,0.8632 2.238,1.3479 3.2624,1.3748 1.0248,0.027 2.3732,-0.4053 3.6134,-1.7793 5.3909,-5.9771 6.8184,-25.5336 18.606,-39.2686 7.0294,-8.1904 17.4226,-13.7619 29.5231,-17.8359 12.1006,-4.0742 43.651,-8.2054 54.4167,-12.8721 34.4424,-14.929 45.1437,-33.2997 71.087,-71.5697 1.4428,-1.8635 10.7971,-19.3187 18.7974,-32.5446 1.9389,-3.2045 14.1902,-22.7199 25.7706,-34.3831 4.6661,-4.6993 8.9878,-10.0905 14.4263,-14.1007 1.7133,-1.2631 -4.3191,7.5688 -8.4464,14.3822 -4.9989,8.2508 -10.1046,19.8011 -12.9194,26.0424 -1.7402,3.8583 -3.642,8.2279 -5.438,13.0785 -4.9153,13.2778 -13.2163,35.8767 -27.2693,56.2839 -15.5937,22.6432 -37.6058,42.8771 -55.6036,50.8326 -23.6029,10.4326 -40.6406,11.1002 -65.8774,15.6291 -21.689,3.8925 -33.0797,7.6306 -44.418,31.1709 -4.0632,8.4347 -6.9741,15.6393 -8.5105,24.9916 z m -18.0335,-3.7349 c -2.1217,0.3674 -5.8169,-0.0284 -8.0759,-1.1066 -2.0851,-0.9959 -3.3848,-1.7198 -2.55,-1.8647 0.8342,-0.1443 2.9387,0.9125 5.2585,1.4746 0.5502,0.1335 1.7768,0.4932 4.2512,0.6766 2.0452,0.1514 4.3727,-0.9714 4.3486,-0.5873 -0.007,0.1122 -1.0979,1.038 -3.2324,1.4074 z m 2.1223,30.2233 c -5.7052,4.5581 -22.0492,2.3006 -23.8864,-1.8936 -0.127,-0.2897 4.123,1.9307 7.6907,2.7182 3.5674,0.7872 6.3873,1.3444 10.7796,0.4853 4.3923,-0.8592 4.6363,-2.2524 5.7784,-2.543 1.1427,-0.2906 0.817,0.2897 -0.3623,1.2331 z M 199.931,554.5942 c -4.3039,2.2351 -11.3171,5.0448 -19.1251,7.3134 -7.8078,2.2685 -15.1685,3.3488 -23.2092,2.982 -8.0405,-0.3674 -16.1164,-2.1813 -22.7226,-4.6497 -6.6061,-2.4687 -13.6349,-6.4031 -19.5409,-8.7054 -5.9054,-2.3026 -11.7153,-3.0266 -15.8683,-3.0464 -4.1531,-0.0193 -5.1384,-0.4669 -3.3032,-0.7677 1.8348,-0.2999 6.7062,-1.1015 13.4464,0.3668 6.7402,1.4684 14.3768,6.0702 21.5844,8.9728 7.2077,2.9027 14.0465,4.9147 20.8534,5.6152 6.8071,0.7007 15.6869,0.089 22.8265,-1.1787 7.1396,-1.2676 12.2635,-3.3514 17.5694,-5.1865 5.3059,-1.8352 9.6588,-4.2851 11.2266,-4.6525 1.5682,-0.3668 0.5667,0.7013 -3.7374,2.9367 z m 17.4081,-54.6565 c -2.9923,-2.2969 -8.8926,-5.9145 -16.5484,-9.0287 -7.6552,-3.1144 -17.6442,-5.3597 -27.9445,-6.1253 -10.3,-0.7657 -21.28,-0.0514 -29.1793,1.3053 -7.8996,1.357 -12.1416,2.9914 -15.0301,4.8699 -2.8879,1.8788 -3.689,3.4804 -2.645,3.4804 1.0437,0 2.8321,-2.3865 6.2952,-3.7964 3.4625,-1.4094 7.9174,-2.888 15.2949,-3.6542 7.3777,-0.7656 17.99,-1.1837 27.0725,-0.4527 9.0825,0.7311 18.6273,2.9245 25.0988,5.4471 6.4715,2.5223 12.0237,5.9513 14.7699,8.3372 2.7463,2.3854 4.9391,2.3661 5.6002,2.3661 0.661,0 0.2083,-0.4521 -2.7842,-2.7487 z m 33.6781,-8.8934 c -2.6617,2.1254 -7.4307,5.72 -15.5015,10.0057 -8.0705,4.2857 -19.4414,9.2633 -29.7238,12.8406 -10.2827,3.5771 -19.4769,5.7547 -25.4733,6.9126 -5.9964,1.158 -8.7965,1.296 -9.4184,1.2093 -0.6219,-0.0859 0.9329,-0.3974 4.6831,-1.2271 3.75,-0.8292 9.6951,-2.1771 13.2376,-3.1964 3.5427,-1.0196 4.6834,-1.7113 4.0441,-2.4891 -0.6395,-0.7778 -1.8453,-1.8556 -5.6817,-3.0135 -3.8362,-1.1582 -9.2333,-2.7522 -14.5378,-3.9966 -5.3045,-1.2441 -13.3092,-1.9601 -19.3056,-2.1673 -5.9964,-0.2073 -11.058,0.4507 -17.7976,1.8504 -6.7397,1.3998 -13.5837,3.5773 -17.6962,5.029 -4.1133,1.4516 -5.4958,2.1775 -3.5427,1.1919 1.9525,-0.9847 7.2411,-3.6805 13.3067,-5.7719 15.6991,-5.4119 24.1166,-5.1412 40.1598,-3.1413 8.6964,1.0842 18.2296,4.0671 26.1323,7.9285 2.3327,1.1406 3.1964,1.3481 6.6359,0.3455 3.4388,-1.0023 9.453,-3.2145 14.914,-5.3226 5.4603,-2.1081 10.3688,-4.1134 14.6372,-6.135 4.2684,-2.0217 7.8976,-4.0618 10.6971,-5.5823 2.7995,-1.5208 5.5809,-3.1635 4.9417,-3.509 -0.6401,-0.3458 -3.2919,0.0935 -7.2488,-0.286 -3.9569,-0.3796 -11.9801,-3.4722 -17.5615,-6.4786 -5.5817,-3.0067 -10.3272,-6.6518 -17.7752,-10.1251 -7.448,-3.4733 -15.6515,-4.2449 -20.9574,-5.195 -5.3059,-0.9502 -7.5175,-0.8464 -7.4653,-1.0888 0.0513,-0.2415 2.3672,-0.8289 6.8261,-0.7084 4.4581,0.1211 11.06,0.9508 18.8362,3.9062 7.7763,2.9551 17.6123,10.0442 24.3179,13.5688 12.0274,6.3221 16.8012,6.0035 28.8402,2.0878 0.6911,-0.2246 0.1378,0.4322 -2.5231,2.5577" />
      </g>
    </g>
    <g id="g54">
      <g clip-path="url(#clipPath60)" id="g56">
        <path id="path68" style="fill:url(#linearGradient66);fill-rule:evenodd;stroke:none" d="m 291.0929,450.726 c 1.6004,4.7673 4.1876,12.768 5.9394,19.8328 1.7513,7.0654 2.6668,13.195 4.3192,19.4443 1.6517,6.249 4.0393,12.6178 6.3088,17.7128 2.2685,5.095 4.4177,8.9158 4.9351,13.2143 0.5176,4.2993 -0.597,9.0754 -4.0394,13.4932 -3.4432,4.4186 -9.2154,8.4784 -12.1207,13.6729 -2.9058,5.1942 -2.9454,11.5234 -3.1243,14.9264 -0.1797,3.4033 -0.4978,3.8809 -2.0302,1.3932 -1.5324,-2.4879 -4.2792,-7.9407 -6.8068,-13.8319 -2.5277,-5.8907 -4.8359,-12.2199 -5.5522,-19.1659 -0.7166,-6.9452 0.159,-14.5074 2.4284,-21.712 2.2683,-7.2045 5.9304,-14.051 8.1193,-19.1262 2.1892,-5.0743 2.9058,-8.3783 2.9457,-13.5527 0.0397,-5.1743 -0.5978,-12.2199 -1.4017,-18.2208 -0.8047,-6.001 -1.7773,-10.9579 -1.9562,-12.6695 -0.1788,-1.7112 0.4346,-0.1774 2.0356,4.5891 z m 3.433,42.91 c 0.3022,2.963 0.7367,7.5243 0.5661,11.9576 -0.1704,4.4331 -0.9456,8.7381 -1.5463,13.4266 -0.6009,4.6891 -1.0273,9.762 -1.3686,10.5078 -0.341,0.7463 -0.5961,-2.8347 -0.6602,-7.7154 -0.0643,-4.8809 0.0641,-11.0619 0.4051,-15.794 0.3405,-4.7314 0.8952,-8.0136 1.2575,-10.7847 0.3622,-2.7706 0.532,-5.0296 0.7027,-5.4771 0.1706,-0.4476 0.341,0.9161 0.6437,3.8792" />
      </g>
    </g>
    <g id="g70">
      <g clip-path="url(#clipPath76)" id="g72">
        <path id="path88" style="fill:url(#linearGradient86);fill-rule:evenodd;stroke:none" d="m 317.4211,513.9317 c 2.4185,2.0158 6.8714,5.5412 11.9934,8.6213 5.1213,3.081 10.9111,5.7155 18.1476,7.441 7.2372,1.7263 15.9214,2.5432 22.9354,3.7307 7.0147,1.1874 12.3585,2.7462 18.4031,7.8148 6.0452,5.0692 12.7897,13.6482 16.7434,21.7134 3.9535,8.0654 5.1154,15.6175 4.2279,23.2977 -0.8872,7.6807 -3.8245,15.491 -6.245,21.5742 -2.4199,6.0837 -4.3243,10.4397 -5.2277,14.8447 -0.9036,4.4056 -0.8067,8.8588 0.0159,12.3605 0.8235,3.5013 2.3718,6.0508 3.9371,8.1161 1.565,2.0654 3.147,3.6471 2.1945,4.1313 -0.9521,0.4838 -4.4367,-0.1296 -8.6811,-1.7757 -4.2431,-1.6452 -9.2457,-4.3242 -13.5379,-7.7128 -4.2923,-3.3879 -7.8744,-7.4871 -12.5538,-10.8598 -4.6795,-3.3721 -10.4568,-6.0182 -16.75,-8.6164 -6.2926,-2.5974 -13.1014,-5.1475 -18.8461,-10.4077 -5.7444,-5.2606 -10.4238,-13.231 -13.1667,-20.1861 -2.743,-6.9545 -3.5503,-12.8925 -2.6302,-19.4924 0.9195,-6.5991 3.5657,-13.8606 5.4538,-19.9276 1.8879,-6.067 3.017,-10.94 2.6785,-15.3456 -0.3393,-4.4051 -2.1461,-8.3418 -4.4371,-11.9889 -2.2918,-3.6465 -5.0675,-7.0033 -6.2626,-8.4285 -1.1959,-1.4256 -0.8118,-0.9196 1.6076,1.0958 z m 52.6328,39.0722 c 3.3818,1.6101 7.6777,4.5961 12.8707,8.4606 5.1937,3.8645 9.8314,8.0938 13.0516,13.1854 3.2199,5.0924 5.9629,10.722 6.3649,14.184 0.4022,3.4616 -0.0808,5.2744 -0.6443,4.6099 -0.5635,-0.6641 -0.3166,-3.8052 -1.605,-7.6898 -1.2881,-3.8849 -4.8152,-9.8742 -8.3579,-14.3631 -3.5425,-4.4884 -9.1548,-8.2908 -13.4425,-11.3505 -4.2877,-3.0597 -6.078,-4.2044 -8.5742,-5.7541 -2.4959,-1.5497 -4.5352,-2.6917 -4.555,-3.0739 -0.0204,-0.3821 1.51,0.1815 4.8917,1.7915 z m -43.6535,-30.0937 c 2.7748,2.13 7.9384,6.1965 13.6502,10.779 5.7124,4.5828 11.9736,9.682 17.1371,15.4746 5.1636,5.7926 8.1386,11.5782 10.9466,17.4028 2.8077,5.8252 5.1333,12.5705 7.0208,20.0409 1.8879,7.4699 4.4295,16.3698 5.8332,22.2271 1.4034,5.8572 1.9842,7.7935 1.3068,6.6478 -0.6778,-1.1452 -2.6136,-5.3731 -4.2597,-11.1983 -1.6458,-5.8246 -2.6711,-12.2686 -5.4303,-20.2881 -2.759,-8.0201 -6.2393,-17.3038 -9.612,-22.9034 -3.3727,-5.5996 -8.3696,-11.0625 -9.612,-11.7403 -1.2427,-0.6783 -1.146,0.5477 -0.5491,3.0977 0.597,2.5501 1.7371,8.4297 2.0597,14.7711 0.3226,6.3414 -0.7387,15.7618 -0.254,22.0725 0.4847,6.3105 2.0013,10.2629 3.2598,14.135 1.2586,3.8721 3.2919,7.7136 5.3411,10.876 2.0494,3.1629 4.1148,5.6474 3.6465,5.1956 -0.468,-0.4516 -3.4688,-3.8401 -6.1478,-8.0195 -2.6782,-4.1794 -5.0346,-9.1491 -6.2124,-14.9584 -1.1778,-5.8085 -1.1778,-12.4563 -1.2586,-18.9916 -0.0808,-6.535 -0.2418,-12.9572 -1.1458,-18.4598 -0.9036,-5.502 -2.5489,-10.0848 -4.7916,-13.9093 -2.2431,-3.8242 -5.0834,-6.8896 -7.6329,-9.375 -2.5495,-2.4846 -4.8081,-4.3889 -5.034,-3.5663 -0.2257,0.8226 0.8778,4.3736 2.4429,8.7137 1.5652,4.3404 2.6073,8.3458 2.6073,14.9783 0,6.6319 -0.7606,15.2804 -1.3255,21.2666 -0.565,5.9868 0.0507,10.4372 -0.2398,10.9375 -0.2906,0.5 -1.0644,-2.3411 -1.0803,-6.9072 -0.0162,-4.5657 1.101,-11.3746 1.1976,-18.0224 0.097,-6.6481 -0.2653,-12.3392 -1.5395,-18.051 -1.2739,-5.7124 -3.8375,-10.9309 -5.6772,-14.2061 -1.8394,-3.2751 -3.5181,-5.4054 -4.8569,-6.9704 -1.3394,-1.5653 -2.3403,-2.5662 -2.647,-2.9696 -0.3064,-0.4031 0.0808,-0.2094 2.8568,1.9205" />
      </g>
    </g>
  </g>
</svg>
